<svg width="564" height="524" viewBox="0 0 564 524" fill="none" xmlns="http://www.w3.org/2000/svg">
<g clip-path="url(#clip0_23_9202)">
<path d="M229.225 423.06C263.613 425.232 297.922 417.394 331.046 406.344C365.355 394.823 401.087 377.635 420.692 342.125C428.755 327.487 433.657 309.732 431.838 292.355C430.099 274.978 420.929 258.168 407.253 251.746C398.873 247.779 386.541 250.329 385.039 260.907C383.458 271.862 394.604 278.945 403.774 280.55C414.842 282.439 426.305 281.872 437.214 278.756C448.677 275.45 461.009 267.14 462.511 253.257C463.539 243.813 458.953 234.558 452.708 228.797C446.463 223.036 438.637 220.108 430.969 217.747C375.552 200.654 317.369 204.526 260.135 204.998C202.901 205.47 143.69 201.976 92.2263 172.038C72.7002 160.705 53.1741 143.14 48.8262 117.641C44.7154 93.6529 55.8619 68.7206 72.0678 53.7991C88.2737 38.8775 108.748 32.2667 128.907 27.9225C149.065 23.5782 169.698 21.3116 189.066 13.3787" stroke="#121F3D" stroke-width="0.75" stroke-miterlimit="10" stroke-linecap="round" stroke-dasharray="6 6"/>
<path d="M172.98 235.441C190.618 269.995 179.387 311.127 147.828 327.374C117.693 342.828 79.9651 329.989 61.2197 298.685L116.111 264.606C116.111 264.606 75.0612 260.96 50.3047 258.979C50.6211 235.124 62.6434 213.013 83.8407 202.155C115.399 185.987 155.342 200.887 172.98 235.441Z" fill="#38999B"/>
<path d="M64.693 402.667L64.6925 402.667C48.7404 408.494 32.6293 402.949 20.4723 395.909C14.3981 392.392 9.32349 388.508 5.76716 385.503C3.98925 384.001 2.59144 382.719 1.6386 381.813C1.1622 381.36 0.797076 381.001 0.551343 380.756C0.510565 380.715 0.473076 380.677 0.438911 380.643L105.507 337.571C105.508 337.63 105.509 337.697 105.509 337.771C105.512 338.139 105.511 338.683 105.494 339.381C105.46 340.778 105.364 342.792 105.116 345.258C104.619 350.19 103.513 356.927 101.073 364.147C96.1945 378.584 85.9939 394.934 64.693 402.667Z" stroke="#121F3D" stroke-width="0.5"/>
<path d="M172.189 250.103C172.822 250.103 173.297 249.628 173.297 248.994C173.297 248.36 172.822 247.884 172.189 247.884C171.557 247.884 171.082 248.36 171.082 248.994C171.082 249.628 171.557 250.103 172.189 250.103Z" fill="#121F3D"/>
<path d="M160.799 250.103C161.431 250.103 161.906 249.628 161.906 248.994C161.906 248.36 161.431 247.884 160.799 247.884C160.166 247.884 159.691 248.36 159.691 248.994C159.691 249.628 160.166 250.103 160.799 250.103Z" fill="#121F3D"/>
<path d="M172.189 238.691C172.822 238.691 173.296 238.215 173.296 237.581C173.296 236.947 172.822 236.472 172.189 236.472C171.556 236.472 171.082 236.947 171.082 237.581C171.003 238.136 171.556 238.691 172.189 238.691Z" fill="#121F3D"/>
<path d="M160.798 238.691C161.431 238.691 161.906 238.215 161.906 237.581C161.906 236.947 161.431 236.472 160.798 236.472C160.166 236.472 159.691 236.947 159.691 237.581C159.612 238.136 160.166 238.691 160.798 238.691Z" fill="#121F3D"/>
<path d="M155.103 244.397C155.736 244.397 156.21 243.921 156.21 243.287C156.21 242.653 155.736 242.178 155.103 242.178C154.47 242.178 153.996 242.653 153.996 243.287C153.917 243.842 154.47 244.397 155.103 244.397Z" fill="#121F3D"/>
<path d="M166.494 244.397C167.127 244.397 167.601 243.921 167.601 243.287C167.601 242.653 167.127 242.178 166.494 242.178C165.861 242.178 165.386 242.653 165.386 243.287C165.307 243.842 165.861 244.397 166.494 244.397Z" fill="#121F3D"/>
<path d="M155.103 232.984C155.736 232.984 156.21 232.509 156.21 231.875C156.21 231.241 155.736 230.765 155.103 230.765C154.47 230.765 153.996 231.241 153.996 231.875C153.917 232.43 154.47 232.984 155.103 232.984Z" fill="#121F3D"/>
<path d="M166.494 232.984C167.127 232.984 167.601 232.509 167.601 231.875C167.601 231.241 167.127 230.765 166.494 230.765C165.861 230.765 165.386 231.241 165.386 231.875C165.307 232.43 165.861 232.984 166.494 232.984Z" fill="#121F3D"/>
<path d="M149.408 250.103C150.041 250.103 150.515 249.627 150.515 248.993C150.515 248.359 150.041 247.884 149.408 247.884C148.775 247.884 148.301 248.359 148.301 248.993C148.301 249.627 148.775 250.103 149.408 250.103Z" fill="#121F3D"/>
<path d="M149.408 238.69C150.041 238.69 150.515 238.215 150.515 237.581C150.515 236.947 150.041 236.471 149.408 236.471C148.775 236.471 148.301 236.947 148.301 237.581C148.221 238.136 148.775 238.69 149.408 238.69Z" fill="#121F3D"/>
<path d="M160.798 227.278C161.431 227.278 161.906 226.803 161.906 226.169C161.906 225.535 161.431 225.059 160.798 225.059C160.166 225.059 159.691 225.535 159.691 226.169C159.612 226.723 160.166 227.278 160.798 227.278Z" fill="#121F3D"/>
<path d="M149.408 227.278C150.041 227.278 150.515 226.803 150.515 226.169C150.515 225.535 150.041 225.059 149.408 225.059C148.775 225.059 148.301 225.535 148.301 226.169C148.221 226.723 148.775 227.278 149.408 227.278Z" fill="#121F3D"/>
<path d="M172.189 272.928C172.822 272.928 173.297 272.452 173.297 271.818C173.297 271.184 172.822 270.709 172.189 270.709C171.557 270.709 171.082 271.184 171.082 271.818C171.082 272.452 171.557 272.928 172.189 272.928Z" fill="#121F3D"/>
<path d="M160.799 272.928C161.431 272.928 161.906 272.452 161.906 271.818C161.906 271.184 161.431 270.709 160.799 270.709C160.166 270.709 159.691 271.184 159.691 271.818C159.691 272.452 160.166 272.928 160.799 272.928Z" fill="#121F3D"/>
<path d="M172.189 261.515C172.822 261.515 173.296 261.04 173.296 260.406C173.296 259.772 172.822 259.296 172.189 259.296C171.556 259.296 171.082 259.772 171.082 260.406C171.003 260.96 171.556 261.515 172.189 261.515Z" fill="#121F3D"/>
<path d="M160.798 261.515C161.431 261.515 161.906 261.04 161.906 260.406C161.906 259.772 161.431 259.296 160.798 259.296C160.166 259.296 159.691 259.772 159.691 260.406C159.612 260.96 160.166 261.515 160.798 261.515Z" fill="#121F3D"/>
<path d="M155.103 267.222C155.736 267.222 156.21 266.746 156.21 266.112C156.21 265.478 155.736 265.002 155.103 265.002C154.47 265.002 153.996 265.478 153.996 266.112C153.917 266.667 154.47 267.222 155.103 267.222Z" fill="#121F3D"/>
<path d="M166.494 267.222C167.127 267.222 167.601 266.746 167.601 266.112C167.601 265.478 167.127 265.002 166.494 265.002C165.861 265.002 165.386 265.478 165.386 266.112C165.307 266.667 165.861 267.222 166.494 267.222Z" fill="#121F3D"/>
<path d="M155.103 255.809C155.736 255.809 156.21 255.334 156.21 254.7C156.21 254.066 155.736 253.59 155.103 253.59C154.47 253.59 153.996 254.066 153.996 254.7C153.917 255.254 154.47 255.809 155.103 255.809Z" fill="#121F3D"/>
<path d="M166.494 255.809C167.127 255.809 167.601 255.334 167.601 254.7C167.601 254.066 167.127 253.59 166.494 253.59C165.861 253.59 165.386 254.066 165.386 254.7C165.307 255.254 165.861 255.809 166.494 255.809Z" fill="#121F3D"/>
<path d="M149.408 272.928C150.041 272.928 150.515 272.452 150.515 271.818C150.515 271.184 150.041 270.708 149.408 270.708C148.775 270.708 148.301 271.184 148.301 271.818C148.301 272.452 148.775 272.928 149.408 272.928Z" fill="#121F3D"/>
<path d="M149.408 261.515C150.041 261.515 150.515 261.04 150.515 260.406C150.515 259.772 150.041 259.296 149.408 259.296C148.775 259.296 148.301 259.772 148.301 260.406C148.221 260.96 148.775 261.515 149.408 261.515Z" fill="#121F3D"/>
<path d="M172.189 250.103C172.822 250.103 173.296 249.627 173.296 248.993C173.296 248.359 172.822 247.884 172.189 247.884C171.556 247.884 171.082 248.359 171.082 248.993C171.003 249.548 171.556 250.103 172.189 250.103Z" fill="#121F3D"/>
<path d="M160.798 250.103C161.431 250.103 161.906 249.627 161.906 248.993C161.906 248.359 161.431 247.884 160.798 247.884C160.166 247.884 159.691 248.359 159.691 248.993C159.612 249.548 160.166 250.103 160.798 250.103Z" fill="#121F3D"/>
<path d="M149.408 250.103C150.041 250.103 150.515 249.627 150.515 248.993C150.515 248.359 150.041 247.884 149.408 247.884C148.775 247.884 148.301 248.359 148.301 248.993C148.221 249.548 148.775 250.103 149.408 250.103Z" fill="#121F3D"/>
<path d="M172.189 295.752C172.822 295.752 173.297 295.277 173.297 294.643C173.297 294.009 172.822 293.533 172.189 293.533C171.557 293.533 171.082 294.009 171.082 294.643C171.082 295.277 171.557 295.752 172.189 295.752Z" fill="#121F3D"/>
<path d="M160.799 295.752C161.431 295.752 161.906 295.277 161.906 294.643C161.906 294.009 161.431 293.533 160.799 293.533C160.166 293.533 159.691 294.009 159.691 294.643C159.691 295.277 160.166 295.752 160.799 295.752Z" fill="#121F3D"/>
<path d="M172.189 284.34C172.822 284.34 173.296 283.865 173.296 283.231C173.296 282.597 172.822 282.121 172.189 282.121C171.556 282.121 171.082 282.597 171.082 283.231C171.003 283.785 171.556 284.34 172.189 284.34Z" fill="#121F3D"/>
<path d="M160.798 284.34C161.431 284.34 161.906 283.865 161.906 283.231C161.906 282.597 161.431 282.121 160.798 282.121C160.166 282.121 159.691 282.597 159.691 283.231C159.612 283.785 160.166 284.34 160.798 284.34Z" fill="#121F3D"/>
<path d="M155.103 290.046C155.736 290.046 156.21 289.571 156.21 288.937C156.21 288.303 155.736 287.827 155.103 287.827C154.47 287.827 153.996 288.303 153.996 288.937C153.917 289.491 154.47 290.046 155.103 290.046Z" fill="#121F3D"/>
<path d="M166.494 290.046C167.127 290.046 167.601 289.571 167.601 288.937C167.601 288.303 167.127 287.827 166.494 287.827C165.861 287.827 165.386 288.303 165.386 288.937C165.307 289.491 165.861 290.046 166.494 290.046Z" fill="#121F3D"/>
<path d="M155.103 278.634C155.736 278.634 156.21 278.158 156.21 277.524C156.21 276.89 155.736 276.415 155.103 276.415C154.47 276.415 153.996 276.89 153.996 277.524C153.917 278.079 154.47 278.634 155.103 278.634Z" fill="#121F3D"/>
<path d="M166.494 278.634C167.127 278.634 167.601 278.158 167.601 277.524C167.601 276.89 167.127 276.415 166.494 276.415C165.861 276.415 165.386 276.89 165.386 277.524C165.307 278.079 165.861 278.634 166.494 278.634Z" fill="#121F3D"/>
<path d="M149.408 295.752C150.041 295.752 150.515 295.277 150.515 294.643C150.515 294.009 150.041 293.533 149.408 293.533C148.775 293.533 148.301 294.009 148.301 294.643C148.301 295.277 148.775 295.752 149.408 295.752Z" fill="#121F3D"/>
<path d="M149.408 284.34C150.041 284.34 150.515 283.864 150.515 283.23C150.515 282.596 150.041 282.121 149.408 282.121C148.775 282.121 148.301 282.596 148.301 283.23C148.221 283.785 148.775 284.34 149.408 284.34Z" fill="#121F3D"/>
<path d="M172.189 272.928C172.822 272.928 173.296 272.452 173.296 271.818C173.296 271.184 172.822 270.708 172.189 270.708C171.556 270.708 171.082 271.184 171.082 271.818C171.003 272.373 171.556 272.928 172.189 272.928Z" fill="#121F3D"/>
<path d="M160.798 272.928C161.431 272.928 161.906 272.452 161.906 271.818C161.906 271.184 161.431 270.708 160.798 270.708C160.166 270.708 159.691 271.184 159.691 271.818C159.612 272.373 160.166 272.928 160.798 272.928Z" fill="#121F3D"/>
<path d="M149.408 272.928C150.041 272.928 150.515 272.452 150.515 271.818C150.515 271.184 150.041 270.708 149.408 270.708C148.775 270.708 148.301 271.184 148.301 271.818C148.221 272.373 148.775 272.928 149.408 272.928Z" fill="#121F3D"/>
<path d="M160.798 307.165C161.431 307.165 161.906 306.689 161.906 306.055C161.906 305.421 161.431 304.946 160.798 304.946C160.166 304.946 159.691 305.421 159.691 306.055C159.612 306.61 160.166 307.165 160.798 307.165Z" fill="#121F3D"/>
<path d="M155.103 312.871C155.736 312.871 156.21 312.396 156.21 311.762C156.21 311.128 155.736 310.652 155.103 310.652C154.47 310.652 153.996 311.128 153.996 311.762C153.917 312.316 154.47 312.871 155.103 312.871Z" fill="#121F3D"/>
<path d="M155.103 301.459C155.736 301.459 156.21 300.983 156.21 300.349C156.21 299.715 155.736 299.24 155.103 299.24C154.47 299.24 153.996 299.715 153.996 300.349C153.917 300.904 154.47 301.459 155.103 301.459Z" fill="#121F3D"/>
<path d="M166.494 301.459C167.127 301.459 167.601 300.983 167.601 300.349C167.601 299.715 167.127 299.24 166.494 299.24C165.861 299.24 165.386 299.715 165.386 300.349C165.307 300.904 165.861 301.459 166.494 301.459Z" fill="#121F3D"/>
<path d="M149.408 318.577C150.041 318.577 150.515 318.102 150.515 317.468C150.515 316.834 150.041 316.358 149.408 316.358C148.775 316.358 148.301 316.834 148.301 317.468C148.301 318.102 148.775 318.577 149.408 318.577Z" fill="#121F3D"/>
<path d="M149.408 307.165C150.041 307.165 150.515 306.689 150.515 306.055C150.515 305.421 150.041 304.946 149.408 304.946C148.775 304.946 148.301 305.421 148.301 306.055C148.221 306.61 148.775 307.165 149.408 307.165Z" fill="#121F3D"/>
<path d="M172.189 295.753C172.822 295.753 173.296 295.277 173.296 294.643C173.296 294.009 172.822 293.533 172.189 293.533C171.556 293.533 171.082 294.009 171.082 294.643C171.003 295.198 171.556 295.753 172.189 295.753Z" fill="#121F3D"/>
<path d="M160.798 295.753C161.431 295.753 161.906 295.277 161.906 294.643C161.906 294.009 161.431 293.533 160.798 293.533C160.166 293.533 159.691 294.009 159.691 294.643C159.612 295.198 160.166 295.753 160.798 295.753Z" fill="#121F3D"/>
<path d="M149.408 295.753C150.041 295.753 150.515 295.277 150.515 294.643C150.515 294.009 150.041 293.533 149.408 293.533C148.775 293.533 148.301 294.009 148.301 294.643C148.221 295.198 148.775 295.753 149.408 295.753Z" fill="#121F3D"/>
<path d="M138.021 204.453C138.654 204.453 139.129 203.978 139.129 203.344C139.129 202.71 138.654 202.234 138.021 202.234C137.389 202.234 136.914 202.71 136.914 203.344C136.914 203.978 137.389 204.453 138.021 204.453Z" fill="#121F3D"/>
<path d="M126.631 204.453C127.264 204.453 127.738 203.978 127.738 203.344C127.738 202.71 127.264 202.234 126.631 202.234C125.998 202.234 125.523 202.71 125.523 203.344C125.523 203.978 125.998 204.453 126.631 204.453Z" fill="#121F3D"/>
<path d="M149.412 227.278C150.045 227.278 150.519 226.802 150.519 226.168C150.519 225.534 150.045 225.059 149.412 225.059C148.779 225.059 148.305 225.534 148.305 226.168C148.305 226.802 148.779 227.278 149.412 227.278Z" fill="#121F3D"/>
<path d="M138.021 227.278C138.654 227.278 139.129 226.802 139.129 226.168C139.129 225.534 138.654 225.059 138.021 225.059C137.389 225.059 136.914 225.534 136.914 226.168C136.914 226.802 137.389 227.278 138.021 227.278Z" fill="#121F3D"/>
<path d="M149.412 215.866C150.044 215.866 150.519 215.39 150.519 214.756C150.519 214.122 150.044 213.646 149.412 213.646C148.779 213.646 148.304 214.122 148.304 214.756C148.225 215.311 148.779 215.866 149.412 215.866Z" fill="#121F3D"/>
<path d="M138.021 215.866C138.654 215.866 139.128 215.39 139.128 214.756C139.128 214.122 138.654 213.646 138.021 213.646C137.388 213.646 136.914 214.122 136.914 214.756C136.835 215.311 137.388 215.866 138.021 215.866Z" fill="#121F3D"/>
<path d="M132.326 221.572C132.959 221.572 133.433 221.096 133.433 220.462C133.433 219.828 132.959 219.353 132.326 219.353C131.693 219.353 131.218 219.828 131.218 220.462C131.139 221.017 131.693 221.572 132.326 221.572Z" fill="#121F3D"/>
<path d="M143.716 221.572C144.349 221.572 144.824 221.096 144.824 220.462C144.824 219.828 144.349 219.353 143.716 219.353C143.084 219.353 142.609 219.828 142.609 220.462C142.53 221.017 143.084 221.572 143.716 221.572Z" fill="#121F3D"/>
<path d="M132.326 210.16C132.959 210.16 133.433 209.684 133.433 209.05C133.433 208.416 132.959 207.94 132.326 207.94C131.693 207.94 131.218 208.416 131.218 209.05C131.139 209.605 131.693 210.16 132.326 210.16Z" fill="#121F3D"/>
<path d="M143.716 210.16C144.349 210.16 144.824 209.684 144.824 209.05C144.824 208.416 144.349 207.94 143.716 207.94C143.084 207.94 142.609 208.416 142.609 209.05C142.53 209.605 143.084 210.16 143.716 210.16Z" fill="#121F3D"/>
<path d="M126.631 227.278C127.264 227.278 127.738 226.803 127.738 226.169C127.738 225.535 127.264 225.059 126.631 225.059C125.998 225.059 125.523 225.535 125.523 226.169C125.523 226.803 125.998 227.278 126.631 227.278Z" fill="#121F3D"/>
<path d="M126.631 215.866C127.263 215.866 127.738 215.39 127.738 214.756C127.738 214.122 127.263 213.647 126.631 213.647C125.998 213.647 125.523 214.122 125.523 214.756C125.444 215.311 125.998 215.866 126.631 215.866Z" fill="#121F3D"/>
<path d="M138.021 204.453C138.654 204.453 139.128 203.978 139.128 203.344C139.128 202.71 138.654 202.234 138.021 202.234C137.388 202.234 136.914 202.71 136.914 203.344C136.835 203.899 137.388 204.453 138.021 204.453Z" fill="#121F3D"/>
<path d="M126.631 204.453C127.263 204.453 127.738 203.978 127.738 203.344C127.738 202.71 127.263 202.234 126.631 202.234C125.998 202.234 125.523 202.71 125.523 203.344C125.444 203.899 125.998 204.453 126.631 204.453Z" fill="#121F3D"/>
<path d="M149.412 250.103C150.045 250.103 150.519 249.628 150.519 248.994C150.519 248.36 150.045 247.884 149.412 247.884C148.779 247.884 148.305 248.36 148.305 248.994C148.305 249.628 148.779 250.103 149.412 250.103Z" fill="#121F3D"/>
<path d="M138.021 250.103C138.654 250.103 139.129 249.628 139.129 248.994C139.129 248.36 138.654 247.884 138.021 247.884C137.389 247.884 136.914 248.36 136.914 248.994C136.914 249.628 137.389 250.103 138.021 250.103Z" fill="#121F3D"/>
<path d="M149.412 238.691C150.044 238.691 150.519 238.215 150.519 237.581C150.519 236.947 150.044 236.472 149.412 236.472C148.779 236.472 148.304 236.947 148.304 237.581C148.225 238.136 148.779 238.691 149.412 238.691Z" fill="#121F3D"/>
<path d="M138.021 238.691C138.654 238.691 139.128 238.215 139.128 237.581C139.128 236.947 138.654 236.472 138.021 236.472C137.388 236.472 136.914 236.947 136.914 237.581C136.835 238.136 137.388 238.691 138.021 238.691Z" fill="#121F3D"/>
<path d="M132.326 244.397C132.959 244.397 133.433 243.921 133.433 243.287C133.433 242.653 132.959 242.178 132.326 242.178C131.693 242.178 131.218 242.653 131.218 243.287C131.139 243.842 131.693 244.397 132.326 244.397Z" fill="#121F3D"/>
<path d="M143.716 244.397C144.349 244.397 144.824 243.921 144.824 243.287C144.824 242.653 144.349 242.178 143.716 242.178C143.084 242.178 142.609 242.653 142.609 243.287C142.53 243.842 143.084 244.397 143.716 244.397Z" fill="#121F3D"/>
<path d="M132.326 232.984C132.959 232.984 133.433 232.509 133.433 231.875C133.433 231.241 132.959 230.765 132.326 230.765C131.693 230.765 131.218 231.241 131.218 231.875C131.139 232.43 131.693 232.984 132.326 232.984Z" fill="#121F3D"/>
<path d="M143.716 232.984C144.349 232.984 144.824 232.509 144.824 231.875C144.824 231.241 144.349 230.765 143.716 230.765C143.084 230.765 142.609 231.241 142.609 231.875C142.53 232.43 143.084 232.984 143.716 232.984Z" fill="#121F3D"/>
<path d="M126.631 250.103C127.264 250.103 127.738 249.627 127.738 248.993C127.738 248.359 127.264 247.884 126.631 247.884C125.998 247.884 125.523 248.359 125.523 248.993C125.523 249.627 125.998 250.103 126.631 250.103Z" fill="#121F3D"/>
<path d="M126.631 238.69C127.263 238.69 127.738 238.215 127.738 237.581C127.738 236.947 127.263 236.471 126.631 236.471C125.998 236.471 125.523 236.947 125.523 237.581C125.444 238.136 125.998 238.69 126.631 238.69Z" fill="#121F3D"/>
<path d="M149.412 227.278C150.045 227.278 150.519 226.803 150.519 226.169C150.519 225.535 150.045 225.059 149.412 225.059C148.779 225.059 148.304 225.535 148.304 226.169C148.225 226.723 148.779 227.278 149.412 227.278Z" fill="#121F3D"/>
<path d="M138.021 227.278C138.654 227.278 139.128 226.803 139.128 226.169C139.128 225.535 138.654 225.059 138.021 225.059C137.388 225.059 136.914 225.535 136.914 226.169C136.835 226.723 137.388 227.278 138.021 227.278Z" fill="#121F3D"/>
<path d="M126.631 227.278C127.263 227.278 127.738 226.803 127.738 226.169C127.738 225.535 127.263 225.059 126.631 225.059C125.998 225.059 125.523 225.535 125.523 226.169C125.444 226.723 125.998 227.278 126.631 227.278Z" fill="#121F3D"/>
<path d="M149.412 272.928C150.045 272.928 150.519 272.452 150.519 271.818C150.519 271.184 150.045 270.709 149.412 270.709C148.779 270.709 148.305 271.184 148.305 271.818C148.305 272.452 148.779 272.928 149.412 272.928Z" fill="#121F3D"/>
<path d="M138.021 272.928C138.654 272.928 139.129 272.452 139.129 271.818C139.129 271.184 138.654 270.709 138.021 270.709C137.389 270.709 136.914 271.184 136.914 271.818C136.914 272.452 137.389 272.928 138.021 272.928Z" fill="#121F3D"/>
<path d="M149.412 261.515C150.044 261.515 150.519 261.04 150.519 260.406C150.519 259.772 150.044 259.296 149.412 259.296C148.779 259.296 148.304 259.772 148.304 260.406C148.225 260.96 148.779 261.515 149.412 261.515Z" fill="#121F3D"/>
<path d="M138.021 261.515C138.654 261.515 139.128 261.04 139.128 260.406C139.128 259.772 138.654 259.296 138.021 259.296C137.388 259.296 136.914 259.772 136.914 260.406C136.835 260.96 137.388 261.515 138.021 261.515Z" fill="#121F3D"/>
<path d="M132.326 267.222C132.959 267.222 133.433 266.746 133.433 266.112C133.433 265.478 132.959 265.002 132.326 265.002C131.693 265.002 131.218 265.478 131.218 266.112C131.139 266.667 131.693 267.222 132.326 267.222Z" fill="#121F3D"/>
<path d="M143.716 267.222C144.349 267.222 144.824 266.746 144.824 266.112C144.824 265.478 144.349 265.002 143.716 265.002C143.084 265.002 142.609 265.478 142.609 266.112C142.53 266.667 143.084 267.222 143.716 267.222Z" fill="#121F3D"/>
<path d="M132.326 255.809C132.959 255.809 133.433 255.334 133.433 254.7C133.433 254.066 132.959 253.59 132.326 253.59C131.693 253.59 131.218 254.066 131.218 254.7C131.139 255.254 131.693 255.809 132.326 255.809Z" fill="#121F3D"/>
<path d="M143.716 255.809C144.349 255.809 144.824 255.334 144.824 254.7C144.824 254.066 144.349 253.59 143.716 253.59C143.084 253.59 142.609 254.066 142.609 254.7C142.53 255.254 143.084 255.809 143.716 255.809Z" fill="#121F3D"/>
<path d="M126.631 261.515C127.263 261.515 127.738 261.04 127.738 260.406C127.738 259.772 127.263 259.296 126.631 259.296C125.998 259.296 125.523 259.772 125.523 260.406C125.444 260.96 125.998 261.515 126.631 261.515Z" fill="#121F3D"/>
<path d="M149.412 250.103C150.045 250.103 150.519 249.627 150.519 248.993C150.519 248.359 150.045 247.884 149.412 247.884C148.779 247.884 148.304 248.359 148.304 248.993C148.225 249.548 148.779 250.103 149.412 250.103Z" fill="#121F3D"/>
<path d="M138.021 250.103C138.654 250.103 139.128 249.627 139.128 248.993C139.128 248.359 138.654 247.884 138.021 247.884C137.388 247.884 136.914 248.359 136.914 248.993C136.835 249.548 137.388 250.103 138.021 250.103Z" fill="#121F3D"/>
<path d="M126.631 250.103C127.263 250.103 127.738 249.627 127.738 248.993C127.738 248.359 127.263 247.884 126.631 247.884C125.998 247.884 125.523 248.359 125.523 248.993C125.444 249.548 125.998 250.103 126.631 250.103Z" fill="#121F3D"/>
<path d="M149.412 295.752C150.045 295.752 150.519 295.277 150.519 294.643C150.519 294.009 150.045 293.533 149.412 293.533C148.779 293.533 148.305 294.009 148.305 294.643C148.305 295.277 148.779 295.752 149.412 295.752Z" fill="#121F3D"/>
<path d="M138.021 295.752C138.654 295.752 139.129 295.277 139.129 294.643C139.129 294.009 138.654 293.533 138.021 293.533C137.389 293.533 136.914 294.009 136.914 294.643C136.914 295.277 137.389 295.752 138.021 295.752Z" fill="#121F3D"/>
<path d="M149.412 284.34C150.045 284.34 150.519 283.865 150.519 283.231C150.519 282.597 150.045 282.121 149.412 282.121C148.779 282.121 148.304 282.597 148.304 283.231C148.225 283.785 148.779 284.34 149.412 284.34Z" fill="#121F3D"/>
<path d="M138.021 284.34C138.654 284.34 139.128 283.865 139.128 283.231C139.128 282.597 138.654 282.121 138.021 282.121C137.388 282.121 136.914 282.597 136.914 283.231C136.835 283.785 137.388 284.34 138.021 284.34Z" fill="#121F3D"/>
<path d="M143.716 290.046C144.349 290.046 144.824 289.571 144.824 288.937C144.824 288.303 144.349 287.827 143.716 287.827C143.084 287.827 142.609 288.303 142.609 288.937C142.53 289.491 143.084 290.046 143.716 290.046Z" fill="#121F3D"/>
<path d="M132.326 278.634C132.959 278.634 133.433 278.158 133.433 277.524C133.433 276.89 132.959 276.415 132.326 276.415C131.693 276.415 131.218 276.89 131.218 277.524C131.139 278.079 131.693 278.634 132.326 278.634Z" fill="#121F3D"/>
<path d="M143.716 278.634C144.349 278.634 144.824 278.158 144.824 277.524C144.824 276.89 144.349 276.415 143.716 276.415C143.084 276.415 142.609 276.89 142.609 277.524C142.53 278.079 143.084 278.634 143.716 278.634Z" fill="#121F3D"/>
<path d="M149.412 272.928C150.045 272.928 150.519 272.452 150.519 271.818C150.519 271.184 150.045 270.708 149.412 270.708C148.779 270.708 148.304 271.184 148.304 271.818C148.225 272.373 148.779 272.928 149.412 272.928Z" fill="#121F3D"/>
<path d="M138.021 272.928C138.654 272.928 139.128 272.452 139.128 271.818C139.128 271.184 138.654 270.708 138.021 270.708C137.388 270.708 136.914 271.184 136.914 271.818C136.835 272.373 137.388 272.928 138.021 272.928Z" fill="#121F3D"/>
<path d="M149.412 318.578C150.045 318.578 150.519 318.102 150.519 317.468C150.519 316.834 150.045 316.358 149.412 316.358C148.779 316.358 148.305 316.834 148.305 317.468C148.305 318.102 148.779 318.578 149.412 318.578Z" fill="#121F3D"/>
<path d="M138.021 318.578C138.654 318.578 139.129 318.102 139.129 317.468C139.129 316.834 138.654 316.358 138.021 316.358C137.389 316.358 136.914 316.834 136.914 317.468C136.914 318.102 137.389 318.578 138.021 318.578Z" fill="#121F3D"/>
<path d="M149.412 307.165C150.044 307.165 150.519 306.689 150.519 306.055C150.519 305.421 150.044 304.946 149.412 304.946C148.779 304.946 148.304 305.421 148.304 306.055C148.225 306.61 148.779 307.165 149.412 307.165Z" fill="#121F3D"/>
<path d="M138.021 307.165C138.654 307.165 139.128 306.689 139.128 306.055C139.128 305.421 138.654 304.946 138.021 304.946C137.388 304.946 136.914 305.421 136.914 306.055C136.835 306.61 137.388 307.165 138.021 307.165Z" fill="#121F3D"/>
<path d="M132.326 312.871C132.959 312.871 133.433 312.396 133.433 311.762C133.433 311.128 132.959 310.652 132.326 310.652C131.693 310.652 131.218 311.128 131.218 311.762C131.139 312.316 131.693 312.871 132.326 312.871Z" fill="#121F3D"/>
<path d="M143.716 312.871C144.349 312.871 144.824 312.396 144.824 311.762C144.824 311.128 144.349 310.652 143.716 310.652C143.084 310.652 142.609 311.128 142.609 311.762C142.53 312.316 143.084 312.871 143.716 312.871Z" fill="#121F3D"/>
<path d="M132.326 301.459C132.959 301.459 133.433 300.983 133.433 300.349C133.433 299.715 132.959 299.24 132.326 299.24C131.693 299.24 131.218 299.715 131.218 300.349C131.139 300.904 131.693 301.459 132.326 301.459Z" fill="#121F3D"/>
<path d="M143.716 301.459C144.349 301.459 144.824 300.983 144.824 300.349C144.824 299.715 144.349 299.24 143.716 299.24C143.084 299.24 142.609 299.715 142.609 300.349C142.53 300.904 143.084 301.459 143.716 301.459Z" fill="#121F3D"/>
<path d="M126.631 318.577C127.264 318.577 127.738 318.102 127.738 317.468C127.738 316.834 127.264 316.358 126.631 316.358C125.998 316.358 125.523 316.834 125.523 317.468C125.523 318.102 125.998 318.577 126.631 318.577Z" fill="#121F3D"/>
<path d="M149.412 295.753C150.045 295.753 150.519 295.277 150.519 294.643C150.519 294.009 150.045 293.533 149.412 293.533C148.779 293.533 148.304 294.009 148.304 294.643C148.225 295.198 148.779 295.753 149.412 295.753Z" fill="#121F3D"/>
<path d="M138.021 295.753C138.654 295.753 139.128 295.277 139.128 294.643C139.128 294.009 138.654 293.533 138.021 293.533C137.388 293.533 136.914 294.009 136.914 294.643C136.835 295.198 137.388 295.753 138.021 295.753Z" fill="#121F3D"/>
<path d="M138.021 329.99C138.654 329.99 139.128 329.514 139.128 328.88C139.128 328.246 138.654 327.771 138.021 327.771C137.388 327.771 136.914 328.246 136.914 328.88C136.835 329.435 137.388 329.99 138.021 329.99Z" fill="#121F3D"/>
<path d="M132.326 324.284C132.959 324.284 133.433 323.808 133.433 323.174C133.433 322.54 132.959 322.064 132.326 322.064C131.693 322.064 131.218 322.54 131.218 323.174C131.139 323.729 131.693 324.284 132.326 324.284Z" fill="#121F3D"/>
<path d="M143.716 324.284C144.349 324.284 144.824 323.808 144.824 323.174C144.824 322.54 144.349 322.064 143.716 322.064C143.084 322.064 142.609 322.54 142.609 323.174C142.53 323.729 143.084 324.284 143.716 324.284Z" fill="#121F3D"/>
<path d="M126.631 329.99C127.263 329.99 127.738 329.514 127.738 328.88C127.738 328.246 127.263 327.771 126.631 327.771C125.998 327.771 125.523 328.246 125.523 328.88C125.444 329.435 125.998 329.99 126.631 329.99Z" fill="#121F3D"/>
<path d="M149.412 318.577C150.045 318.577 150.519 318.102 150.519 317.468C150.519 316.834 150.045 316.358 149.412 316.358C148.779 316.358 148.304 316.834 148.304 317.468C148.225 318.022 148.779 318.577 149.412 318.577Z" fill="#121F3D"/>
<path d="M138.021 318.577C138.654 318.577 139.128 318.102 139.128 317.468C139.128 316.834 138.654 316.358 138.021 316.358C137.388 316.358 136.914 316.834 136.914 317.468C136.835 318.022 137.388 318.577 138.021 318.577Z" fill="#121F3D"/>
<path d="M126.631 318.577C127.263 318.577 127.738 318.102 127.738 317.468C127.738 316.834 127.263 316.358 126.631 316.358C125.998 316.358 125.523 316.834 125.523 317.468C125.444 318.022 125.998 318.577 126.631 318.577Z" fill="#121F3D"/>
<path d="M126.631 204.453C127.264 204.453 127.738 203.978 127.738 203.344C127.738 202.71 127.264 202.234 126.631 202.234C125.998 202.234 125.523 202.71 125.523 203.344C125.523 203.978 125.998 204.453 126.631 204.453Z" fill="#121F3D"/>
<path d="M115.24 204.453C115.873 204.453 116.347 203.978 116.347 203.344C116.347 202.71 115.873 202.234 115.24 202.234C114.607 202.234 114.133 202.71 114.133 203.344C114.133 203.978 114.607 204.453 115.24 204.453Z" fill="#121F3D"/>
<path d="M109.545 198.747C110.177 198.747 110.652 198.272 110.652 197.638C110.652 197.004 110.177 196.528 109.545 196.528C108.912 196.528 108.437 197.004 108.437 197.638C108.358 198.192 108.912 198.747 109.545 198.747Z" fill="#121F3D"/>
<path d="M120.935 198.747C121.568 198.747 122.043 198.272 122.043 197.638C122.043 197.004 121.568 196.528 120.935 196.528C120.302 196.528 119.828 197.004 119.828 197.638C119.749 198.192 120.302 198.747 120.935 198.747Z" fill="#121F3D"/>
<path d="M103.85 204.453C104.482 204.453 104.957 203.978 104.957 203.344C104.957 202.71 104.482 202.234 103.85 202.234C103.217 202.234 102.742 202.71 102.742 203.344C102.742 203.978 103.217 204.453 103.85 204.453Z" fill="#121F3D"/>
<path d="M126.631 227.278C127.264 227.278 127.738 226.802 127.738 226.168C127.738 225.534 127.264 225.059 126.631 225.059C125.998 225.059 125.523 225.534 125.523 226.168C125.523 226.802 125.998 227.278 126.631 227.278Z" fill="#121F3D"/>
<path d="M115.24 227.278C115.873 227.278 116.347 226.802 116.347 226.168C116.347 225.534 115.873 225.059 115.24 225.059C114.607 225.059 114.133 225.534 114.133 226.168C114.133 226.802 114.607 227.278 115.24 227.278Z" fill="#121F3D"/>
<path d="M126.631 215.866C127.263 215.866 127.738 215.39 127.738 214.756C127.738 214.122 127.263 213.646 126.631 213.646C125.998 213.646 125.523 214.122 125.523 214.756C125.444 215.311 125.998 215.866 126.631 215.866Z" fill="#121F3D"/>
<path d="M115.24 215.866C115.873 215.866 116.347 215.39 116.347 214.756C116.347 214.122 115.873 213.646 115.24 213.646C114.607 213.646 114.133 214.122 114.133 214.756C114.053 215.311 114.607 215.866 115.24 215.866Z" fill="#121F3D"/>
<path d="M109.545 221.572C110.177 221.572 110.652 221.096 110.652 220.462C110.652 219.828 110.177 219.353 109.545 219.353C108.912 219.353 108.437 219.828 108.437 220.462C108.358 221.017 108.912 221.572 109.545 221.572Z" fill="#121F3D"/>
<path d="M120.935 221.572C121.568 221.572 122.043 221.096 122.043 220.462C122.043 219.828 121.568 219.353 120.935 219.353C120.302 219.353 119.828 219.828 119.828 220.462C119.749 221.017 120.302 221.572 120.935 221.572Z" fill="#121F3D"/>
<path d="M109.545 210.16C110.177 210.16 110.652 209.684 110.652 209.05C110.652 208.416 110.177 207.94 109.545 207.94C108.912 207.94 108.437 208.416 108.437 209.05C108.358 209.605 108.912 210.16 109.545 210.16Z" fill="#121F3D"/>
<path d="M120.935 210.16C121.568 210.16 122.043 209.684 122.043 209.05C122.043 208.416 121.568 207.94 120.935 207.94C120.302 207.94 119.828 208.416 119.828 209.05C119.749 209.605 120.302 210.16 120.935 210.16Z" fill="#121F3D"/>
<path d="M103.849 215.866C104.482 215.866 104.957 215.39 104.957 214.756C104.957 214.122 104.482 213.647 103.849 213.647C103.217 213.647 102.742 214.122 102.742 214.756C102.663 215.311 103.217 215.866 103.849 215.866Z" fill="#121F3D"/>
<path d="M126.631 204.453C127.263 204.453 127.738 203.978 127.738 203.344C127.738 202.71 127.263 202.234 126.631 202.234C125.998 202.234 125.523 202.71 125.523 203.344C125.444 203.899 125.998 204.453 126.631 204.453Z" fill="#121F3D"/>
<path d="M115.24 204.453C115.873 204.453 116.347 203.978 116.347 203.344C116.347 202.71 115.873 202.234 115.24 202.234C114.607 202.234 114.133 202.71 114.133 203.344C114.053 203.899 114.607 204.453 115.24 204.453Z" fill="#121F3D"/>
<path d="M103.849 204.453C104.482 204.453 104.957 203.978 104.957 203.344C104.957 202.71 104.482 202.234 103.849 202.234C103.217 202.234 102.742 202.71 102.742 203.344C102.663 203.899 103.217 204.453 103.849 204.453Z" fill="#121F3D"/>
<path d="M126.631 250.103C127.264 250.103 127.738 249.628 127.738 248.994C127.738 248.36 127.264 247.884 126.631 247.884C125.998 247.884 125.523 248.36 125.523 248.994C125.523 249.628 125.998 250.103 126.631 250.103Z" fill="#121F3D"/>
<path d="M126.631 238.691C127.263 238.691 127.738 238.215 127.738 237.581C127.738 236.947 127.263 236.472 126.631 236.472C125.998 236.472 125.523 236.947 125.523 237.581C125.444 238.136 125.998 238.691 126.631 238.691Z" fill="#121F3D"/>
<path d="M120.935 244.397C121.568 244.397 122.043 243.921 122.043 243.287C122.043 242.653 121.568 242.178 120.935 242.178C120.302 242.178 119.828 242.653 119.828 243.287C119.749 243.842 120.302 244.397 120.935 244.397Z" fill="#121F3D"/>
<path d="M120.935 232.984C121.568 232.984 122.043 232.509 122.043 231.875C122.043 231.241 121.568 230.765 120.935 230.765C120.302 230.765 119.828 231.241 119.828 231.875C119.749 232.43 120.302 232.984 120.935 232.984Z" fill="#121F3D"/>
<path d="M126.631 227.278C127.263 227.278 127.738 226.803 127.738 226.169C127.738 225.535 127.263 225.059 126.631 225.059C125.998 225.059 125.523 225.535 125.523 226.169C125.444 226.723 125.998 227.278 126.631 227.278Z" fill="#121F3D"/>
<path d="M115.24 227.278C115.873 227.278 116.347 226.803 116.347 226.169C116.347 225.535 115.873 225.059 115.24 225.059C114.607 225.059 114.133 225.535 114.133 226.169C114.053 226.723 114.607 227.278 115.24 227.278Z" fill="#121F3D"/>
<path d="M126.631 318.577C127.264 318.577 127.738 318.102 127.738 317.468C127.738 316.834 127.264 316.358 126.631 316.358C125.998 316.358 125.523 316.834 125.523 317.468C125.523 318.102 125.998 318.577 126.631 318.577Z" fill="#121F3D"/>
<path d="M115.24 318.577C115.873 318.577 116.347 318.102 116.347 317.468C116.347 316.834 115.873 316.358 115.24 316.358C114.607 316.358 114.133 316.834 114.133 317.468C114.133 318.102 114.607 318.577 115.24 318.577Z" fill="#121F3D"/>
<path d="M120.935 312.871C121.568 312.871 122.043 312.395 122.043 311.761C122.043 311.127 121.568 310.652 120.935 310.652C120.302 310.652 119.828 311.127 119.828 311.761C119.749 312.316 120.302 312.871 120.935 312.871Z" fill="#121F3D"/>
<path d="M103.85 318.577C104.482 318.577 104.957 318.102 104.957 317.468C104.957 316.834 104.482 316.358 103.85 316.358C103.217 316.358 102.742 316.834 102.742 317.468C102.742 318.102 103.217 318.577 103.85 318.577Z" fill="#121F3D"/>
<path d="M126.631 329.99C127.263 329.99 127.738 329.514 127.738 328.88C127.738 328.246 127.263 327.771 126.631 327.771C125.998 327.771 125.523 328.246 125.523 328.88C125.444 329.435 125.998 329.99 126.631 329.99Z" fill="#121F3D"/>
<path d="M115.24 329.99C115.873 329.99 116.347 329.514 116.347 328.88C116.347 328.246 115.873 327.771 115.24 327.771C114.607 327.771 114.133 328.246 114.133 328.88C114.053 329.435 114.607 329.99 115.24 329.99Z" fill="#121F3D"/>
<path d="M109.545 324.284C110.177 324.284 110.652 323.808 110.652 323.174C110.652 322.54 110.177 322.064 109.545 322.064C108.912 322.064 108.437 322.54 108.437 323.174C108.358 323.729 108.912 324.284 109.545 324.284Z" fill="#121F3D"/>
<path d="M120.935 324.284C121.568 324.284 122.043 323.808 122.043 323.174C122.043 322.54 121.568 322.064 120.935 322.064C120.302 322.064 119.828 322.54 119.828 323.174C119.749 323.729 120.302 324.284 120.935 324.284Z" fill="#121F3D"/>
<path d="M103.849 329.99C104.482 329.99 104.957 329.514 104.957 328.88C104.957 328.246 104.482 327.771 103.849 327.771C103.217 327.771 102.742 328.246 102.742 328.88C102.663 329.435 103.217 329.99 103.849 329.99Z" fill="#121F3D"/>
<path d="M126.631 318.577C127.263 318.577 127.738 318.102 127.738 317.468C127.738 316.834 127.263 316.358 126.631 316.358C125.998 316.358 125.523 316.834 125.523 317.468C125.444 318.022 125.998 318.577 126.631 318.577Z" fill="#121F3D"/>
<path d="M115.24 318.577C115.873 318.577 116.347 318.102 116.347 317.468C116.347 316.834 115.873 316.358 115.24 316.358C114.607 316.358 114.133 316.834 114.133 317.468C114.053 318.022 114.607 318.577 115.24 318.577Z" fill="#121F3D"/>
<path d="M103.849 318.577C104.482 318.577 104.957 318.102 104.957 317.468C104.957 316.834 104.482 316.358 103.849 316.358C103.217 316.358 102.742 316.834 102.742 317.468C102.663 318.022 103.217 318.577 103.849 318.577Z" fill="#121F3D"/>
<path d="M103.853 204.453C104.486 204.453 104.961 203.978 104.961 203.344C104.961 202.71 104.486 202.234 103.853 202.234C103.221 202.234 102.746 202.71 102.746 203.344C102.746 203.978 103.221 204.453 103.853 204.453Z" fill="#121F3D"/>
<path d="M92.4628 204.453C93.0955 204.453 93.5701 203.978 93.5701 203.344C93.5701 202.71 93.0955 202.234 92.4628 202.234C91.83 202.234 91.3555 202.71 91.3555 203.344C91.3555 203.978 91.83 204.453 92.4628 204.453Z" fill="#121F3D"/>
<path d="M103.853 215.866C104.486 215.866 104.96 215.39 104.96 214.756C104.96 214.122 104.486 213.646 103.853 213.646C103.22 213.646 102.746 214.122 102.746 214.756C102.667 215.311 103.22 215.866 103.853 215.866Z" fill="#121F3D"/>
<path d="M86.7672 210.16C87.4 210.16 87.8745 209.684 87.8745 209.05C87.8745 208.416 87.4 207.94 86.7672 207.94C86.1345 207.94 85.6599 208.416 85.6599 209.05C85.5808 209.605 86.1345 210.16 86.7672 210.16Z" fill="#121F3D"/>
<path d="M98.1578 210.16C98.7906 210.16 99.2652 209.684 99.2652 209.05C99.2652 208.416 98.7906 207.94 98.1578 207.94C97.5251 207.94 97.0505 208.416 97.0505 209.05C96.9714 209.605 97.5251 210.16 98.1578 210.16Z" fill="#121F3D"/>
<path d="M103.853 204.453C104.486 204.453 104.96 203.978 104.96 203.344C104.96 202.71 104.486 202.234 103.853 202.234C103.22 202.234 102.746 202.71 102.746 203.344C102.667 203.899 103.22 204.453 103.853 204.453Z" fill="#121F3D"/>
<path d="M92.4625 204.453C93.0953 204.453 93.5699 203.978 93.5699 203.344C93.5699 202.71 93.0953 202.234 92.4625 202.234C91.8298 202.234 91.3552 202.71 91.3552 203.344C91.2761 203.899 91.8298 204.453 92.4625 204.453Z" fill="#121F3D"/>
<path d="M103.853 329.99C104.486 329.99 104.96 329.514 104.96 328.88C104.96 328.246 104.486 327.771 103.853 327.771C103.22 327.771 102.746 328.246 102.746 328.88C102.667 329.435 103.22 329.99 103.853 329.99Z" fill="#121F3D"/>
<path d="M86.7672 324.284C87.4 324.284 87.8745 323.808 87.8745 323.174C87.8745 322.54 87.4 322.064 86.7672 322.064C86.1345 322.064 85.6599 322.54 85.6599 323.174C85.5808 323.729 86.1345 324.284 86.7672 324.284Z" fill="#121F3D"/>
<path d="M98.1578 324.284C98.7906 324.284 99.2652 323.808 99.2652 323.174C99.2652 322.54 98.7906 322.064 98.1578 322.064C97.5251 322.064 97.0505 322.54 97.0505 323.174C96.9714 323.729 97.5251 324.284 98.1578 324.284Z" fill="#121F3D"/>
<path d="M103.853 318.577C104.486 318.577 104.96 318.102 104.96 317.468C104.96 316.834 104.486 316.358 103.853 316.358C103.22 316.358 102.746 316.834 102.746 317.468C102.667 318.022 103.22 318.577 103.853 318.577Z" fill="#121F3D"/>
<path d="M92.4625 318.577C93.0953 318.577 93.5698 318.102 93.5698 317.468C93.5698 316.834 93.0953 316.358 92.4625 316.358C91.8298 316.358 91.3552 316.834 91.3552 317.468C91.2761 318.022 91.8298 318.577 92.4625 318.577Z" fill="#121F3D"/>
<path d="M81.0719 318.577C81.7047 318.577 82.1792 318.102 82.1792 317.468C82.1792 316.834 81.7047 316.358 81.0719 316.358C80.4392 316.358 79.9646 316.834 79.9646 317.468C79.8855 318.022 80.4392 318.577 81.0719 318.577Z" fill="#121F3D"/>
<path d="M211.341 456.16L107.016 221.493" stroke="#121F3D" stroke-width="0.5" stroke-miterlimit="10"/>
<path d="M128.289 269.282L168.153 233.38" stroke="#121F3D" stroke-width="0.5" stroke-miterlimit="10"/>
<path d="M135.016 284.419L178.438 284.26" stroke="#121F3D" stroke-width="0.5" stroke-miterlimit="10"/>
<path d="M206.833 456.08C206.833 456.08 145.376 354.637 106.383 337.201" stroke="#121F3D" stroke-width="0.5" stroke-miterlimit="10"/>
<path d="M75.8516 348.931L97.1279 370.329" stroke="#121F3D" stroke-width="0.5" stroke-miterlimit="10"/>
<path d="M65.8047 353.21L80.2789 393.312" stroke="#121F3D" stroke-width="0.5" stroke-miterlimit="10"/>
<path d="M38.7578 364.385L41.6843 403.14" stroke="#121F3D" stroke-width="0.5" stroke-miterlimit="10"/>
<path d="M508.656 447.125C508.656 447.125 512.611 434.524 515.775 430.561C518.939 426.598 522.893 426.598 522.893 426.598C522.893 426.598 564.022 463.847 563.231 465.432C562.44 467.017 560.859 473.357 548.994 470.187C537.13 467.017 533.966 459.885 528.43 458.299C522.893 456.714 522.102 457.507 522.102 457.507L508.656 447.125Z" fill="#38999B"/>
<path d="M497.506 447.917C497.506 447.997 509.37 445.619 514.906 448.789C520.443 451.959 522.025 457.507 522.025 457.507L503.279 465.274L495.133 461.47L497.506 447.917Z" fill="#FFC9A1"/>
<path d="M408.205 357.173C408.205 357.173 399.346 347.346 397.527 342.67C395.708 337.915 397.685 334.507 397.685 334.507C397.685 334.507 450.52 317.785 451.549 319.29C452.498 320.796 457.164 325.314 448.464 334.031C439.764 342.67 432.012 341.798 427.82 345.761C423.628 349.724 423.945 350.833 423.945 350.833L408.205 357.173Z" fill="#38999B"/>
<path d="M403.301 367.159C403.38 367.159 407.335 355.747 412.871 352.497C418.408 349.248 423.944 350.754 423.944 350.754L421.176 370.884L413.741 375.956L403.301 367.159Z" fill="#FFC9A1"/>
<path d="M426.081 459.488C426.081 459.488 444.589 451.959 458.035 447.997C471.482 444.034 496.792 445.619 496.792 445.619L504.701 469.395C504.701 469.395 431.143 504.266 404.251 506.644C377.359 509.021 375.777 499.511 375.777 499.511L426.081 459.488Z" fill="#38999B"/>
<path d="M426.004 459.013C426.636 471.297 427.19 485.087 421.574 493.963C419.993 496.499 417.462 498.639 414.219 500.462C381.948 518.69 276.832 504.266 276.832 504.266L274.301 468.048C274.301 468.048 297.396 447.997 317.961 449.582C338.525 451.167 378.073 470.187 384.4 465.432C390.728 460.677 382.818 413.918 386.773 398.86C390.728 383.802 397.055 366.366 397.055 366.366L429.484 370.329C429.484 370.329 425.529 432.939 425.529 447.204C425.608 450.771 425.845 454.812 426.004 459.013Z" fill="#51ACAE"/>
<path d="M214.742 486.672L213.318 483.74L183.499 421.843C183.42 422.319 181.997 429.927 181.838 440.864C181.759 443.558 181.838 446.491 181.997 449.582C183.183 473.437 186.742 480.49 186.742 480.49L144.031 485.245L145.613 504.266L168.55 503.077L204.934 501.096L215.216 487.623L214.742 486.672ZM159.85 497.688C157.794 496.578 155.263 497.054 153.681 498.718C153.206 499.273 152.573 499.828 151.941 500.303C149.568 501.888 146.404 491.586 155.104 488.415C161.195 486.196 166.178 489.446 168.55 491.586V501.651C166.415 501.017 162.698 499.194 159.85 497.688Z" fill="#FA6E21"/>
<path d="M219.171 402.902C219.171 402.902 205.014 399.256 192.279 407.499C178.833 416.216 180.89 447.204 184.37 456.635C194.652 484.374 212.844 487.544 212.844 487.544L231.036 478.826L219.171 402.902Z" fill="#F87E25"/>
<path d="M243.139 421.843C243.139 421.843 271.138 463.689 275.251 469.395C281.578 478.113 284.268 502.998 276.833 504.266C272.087 505.059 242.031 500.303 242.031 500.303" fill="#FA6E21"/>
<path d="M242.109 500.303C233.408 511.399 168.551 506.644 168.551 506.644V486.83L205.092 484.294L213.397 483.74L214.505 483.66C214.505 483.66 205.804 436.901 207.386 420.258C207.782 416.058 208.81 412.888 210.075 410.431C211.024 408.687 212.053 407.34 213.16 406.31C215.533 404.012 218.064 403.219 219.25 402.981C219.725 402.902 220.041 402.823 220.041 402.823C222.098 402.585 223.996 402.664 225.815 403.06C235.385 405.042 240.368 415.028 242.979 421.051C243.058 421.289 243.137 421.526 243.295 421.843C246.301 431.829 250.493 489.525 242.109 500.303Z" fill="#FA6E21"/>
<path d="M496.791 449.819C497.423 449.819 497.898 449.344 497.898 448.71C497.898 448.076 497.423 447.6 496.791 447.6C496.158 447.6 495.683 448.076 495.683 448.71C495.604 449.265 496.158 449.819 496.791 449.819Z" fill="#121F3D"/>
<path d="M491.096 455.526C491.728 455.526 492.203 455.05 492.203 454.416C492.203 453.782 491.728 453.307 491.096 453.307C490.463 453.307 489.988 453.782 489.988 454.416C489.988 455.05 490.463 455.526 491.096 455.526Z" fill="#121F3D"/>
<path d="M491.095 444.113C491.728 444.113 492.203 443.638 492.203 443.004C492.203 442.37 491.728 441.894 491.095 441.894C490.463 441.894 489.988 442.37 489.988 443.004C489.909 443.559 490.463 444.113 491.095 444.113Z" fill="#121F3D"/>
<path d="M502.486 466.938C503.119 466.938 503.593 466.463 503.593 465.829C503.593 465.195 503.119 464.719 502.486 464.719C501.853 464.719 501.379 465.195 501.379 465.829C501.3 466.383 501.853 466.938 502.486 466.938Z" fill="#121F3D"/>
<path d="M496.791 472.644C497.423 472.644 497.898 472.169 497.898 471.535C497.898 470.901 497.423 470.425 496.791 470.425C496.158 470.425 495.683 470.901 495.683 471.535C495.604 472.09 496.158 472.644 496.791 472.644Z" fill="#121F3D"/>
<path d="M496.791 461.232C497.423 461.232 497.898 460.756 497.898 460.122C497.898 459.488 497.423 459.013 496.791 459.013C496.158 459.013 495.683 459.488 495.683 460.122C495.604 460.677 496.158 461.232 496.791 461.232Z" fill="#121F3D"/>
<path d="M489.908 476.924C490.541 476.924 491.015 476.448 491.015 475.814C491.015 475.18 490.541 474.705 489.908 474.705C489.275 474.705 488.801 475.18 488.801 475.814C488.801 476.448 489.275 476.924 489.908 476.924Z" fill="#121F3D"/>
<path d="M491.095 466.938C491.728 466.938 492.203 466.462 492.203 465.828C492.203 465.194 491.728 464.719 491.095 464.719C490.463 464.719 489.988 465.194 489.988 465.828C489.909 466.383 490.463 466.938 491.095 466.938Z" fill="#121F3D"/>
<path d="M491.095 455.526C491.728 455.526 492.203 455.05 492.203 454.416C492.203 453.782 491.728 453.307 491.095 453.307C490.463 453.307 489.988 453.782 489.988 454.416C489.909 454.971 490.463 455.526 491.095 455.526Z" fill="#121F3D"/>
<path d="M491.1 455.526C491.732 455.526 492.207 455.05 492.207 454.416C492.207 453.782 491.732 453.307 491.1 453.307C490.467 453.307 489.992 453.782 489.992 454.416C489.992 455.05 490.467 455.526 491.1 455.526Z" fill="#121F3D"/>
<path d="M479.709 455.526C480.342 455.526 480.816 455.05 480.816 454.416C480.816 453.782 480.342 453.307 479.709 453.307C479.076 453.307 478.602 453.782 478.602 454.416C478.602 455.05 479.076 455.526 479.709 455.526Z" fill="#121F3D"/>
<path d="M474.013 449.819C474.646 449.819 475.121 449.344 475.121 448.71C475.121 448.076 474.646 447.6 474.013 447.6C473.381 447.6 472.906 448.076 472.906 448.71C472.827 449.265 473.381 449.819 474.013 449.819Z" fill="#121F3D"/>
<path d="M485.404 449.819C486.037 449.819 486.511 449.344 486.511 448.71C486.511 448.076 486.037 447.6 485.404 447.6C484.771 447.6 484.297 448.076 484.297 448.71C484.218 449.265 484.771 449.819 485.404 449.819Z" fill="#121F3D"/>
<path d="M468.318 455.526C468.951 455.526 469.426 455.05 469.426 454.416C469.426 453.782 468.951 453.307 468.318 453.307C467.685 453.307 467.211 453.782 467.211 454.416C467.211 455.05 467.685 455.526 468.318 455.526Z" fill="#121F3D"/>
<path d="M468.318 444.113C468.951 444.113 469.425 443.638 469.425 443.004C469.425 442.37 468.951 441.894 468.318 441.894C467.685 441.894 467.211 442.37 467.211 443.004C467.132 443.559 467.685 444.113 468.318 444.113Z" fill="#121F3D"/>
<path d="M479.709 478.351C480.342 478.351 480.816 477.875 480.816 477.241C480.816 476.607 480.342 476.132 479.709 476.132C479.076 476.132 478.602 476.607 478.602 477.241C478.602 477.875 479.076 478.351 479.709 478.351Z" fill="#121F3D"/>
<path d="M491.099 466.938C491.732 466.938 492.207 466.463 492.207 465.829C492.207 465.195 491.732 464.719 491.099 464.719C490.467 464.719 489.992 465.195 489.992 465.829C489.913 466.383 490.467 466.938 491.099 466.938Z" fill="#121F3D"/>
<path d="M479.709 466.938C480.341 466.938 480.816 466.463 480.816 465.829C480.816 465.195 480.341 464.719 479.709 464.719C479.076 464.719 478.601 465.195 478.601 465.829C478.522 466.383 479.076 466.938 479.709 466.938Z" fill="#121F3D"/>
<path d="M474.013 472.644C474.646 472.644 475.121 472.169 475.121 471.535C475.121 470.901 474.646 470.425 474.013 470.425C473.381 470.425 472.906 470.901 472.906 471.535C472.827 472.09 473.381 472.644 474.013 472.644Z" fill="#121F3D"/>
<path d="M485.404 472.644C486.037 472.644 486.511 472.169 486.511 471.535C486.511 470.901 486.037 470.425 485.404 470.425C484.771 470.425 484.297 470.901 484.297 471.535C484.218 472.09 484.771 472.644 485.404 472.644Z" fill="#121F3D"/>
<path d="M474.013 461.232C474.646 461.232 475.121 460.756 475.121 460.122C475.121 459.488 474.646 459.013 474.013 459.013C473.381 459.013 472.906 459.488 472.906 460.122C472.827 460.677 473.381 461.232 474.013 461.232Z" fill="#121F3D"/>
<path d="M485.404 461.232C486.037 461.232 486.511 460.756 486.511 460.122C486.511 459.488 486.037 459.013 485.404 459.013C484.771 459.013 484.297 459.488 484.297 460.122C484.218 460.677 484.771 461.232 485.404 461.232Z" fill="#121F3D"/>
<path d="M468.318 478.35C468.951 478.35 469.426 477.875 469.426 477.241C469.426 476.607 468.951 476.131 468.318 476.131C467.685 476.131 467.211 476.607 467.211 477.241C467.211 477.875 467.685 478.35 468.318 478.35Z" fill="#121F3D"/>
<path d="M468.318 466.938C468.951 466.938 469.425 466.462 469.425 465.828C469.425 465.194 468.951 464.719 468.318 464.719C467.685 464.719 467.211 465.194 467.211 465.828C467.132 466.383 467.685 466.938 468.318 466.938Z" fill="#121F3D"/>
<path d="M491.099 455.526C491.732 455.526 492.207 455.05 492.207 454.416C492.207 453.782 491.732 453.307 491.099 453.307C490.467 453.307 489.992 453.782 489.992 454.416C489.913 454.971 490.467 455.526 491.099 455.526Z" fill="#121F3D"/>
<path d="M479.709 455.526C480.341 455.526 480.816 455.05 480.816 454.416C480.816 453.782 480.341 453.307 479.709 453.307C479.076 453.307 478.601 453.782 478.601 454.416C478.522 454.971 479.076 455.526 479.709 455.526Z" fill="#121F3D"/>
<path d="M468.318 455.526C468.951 455.526 469.425 455.05 469.425 454.416C469.425 453.782 468.951 453.307 468.318 453.307C467.685 453.307 467.211 453.782 467.211 454.416C467.132 454.971 467.685 455.526 468.318 455.526Z" fill="#121F3D"/>
<path d="M474.013 484.057C474.646 484.057 475.121 483.581 475.121 482.947C475.121 482.313 474.646 481.838 474.013 481.838C473.381 481.838 472.906 482.313 472.906 482.947C472.827 483.502 473.381 484.057 474.013 484.057Z" fill="#121F3D"/>
<path d="M479.709 478.35C480.341 478.35 480.816 477.875 480.816 477.241C480.816 476.607 480.341 476.131 479.709 476.131C479.076 476.131 478.601 476.607 478.601 477.241C478.522 477.796 479.076 478.35 479.709 478.35Z" fill="#121F3D"/>
<path d="M468.318 478.35C468.951 478.35 469.425 477.875 469.425 477.241C469.425 476.607 468.951 476.131 468.318 476.131C467.685 476.131 467.211 476.607 467.211 477.241C467.132 477.796 467.685 478.35 468.318 478.35Z" fill="#121F3D"/>
<path d="M468.318 455.526C468.951 455.526 469.426 455.05 469.426 454.416C469.426 453.782 468.951 453.307 468.318 453.307C467.685 453.307 467.211 453.782 467.211 454.416C467.211 455.05 467.685 455.526 468.318 455.526Z" fill="#121F3D"/>
<path d="M456.928 455.526C457.56 455.526 458.035 455.05 458.035 454.416C458.035 453.782 457.56 453.307 456.928 453.307C456.295 453.307 455.82 453.782 455.82 454.416C455.82 455.05 456.295 455.526 456.928 455.526Z" fill="#121F3D"/>
<path d="M451.232 449.819C451.865 449.819 452.339 449.344 452.339 448.71C452.339 448.076 451.865 447.6 451.232 447.6C450.599 447.6 450.125 448.076 450.125 448.71C450.046 449.265 450.599 449.819 451.232 449.819Z" fill="#121F3D"/>
<path d="M462.623 449.819C463.255 449.819 463.73 449.344 463.73 448.71C463.73 448.076 463.255 447.6 462.623 447.6C461.99 447.6 461.515 448.076 461.515 448.71C461.436 449.265 461.99 449.819 462.623 449.819Z" fill="#121F3D"/>
<path d="M445.537 455.526C446.17 455.526 446.644 455.05 446.644 454.416C446.644 453.782 446.17 453.307 445.537 453.307C444.904 453.307 444.43 453.782 444.43 454.416C444.43 455.05 444.904 455.526 445.537 455.526Z" fill="#121F3D"/>
<path d="M468.318 478.351C468.951 478.351 469.426 477.875 469.426 477.241C469.426 476.607 468.951 476.132 468.318 476.132C467.685 476.132 467.211 476.607 467.211 477.241C467.211 477.875 467.685 478.351 468.318 478.351Z" fill="#121F3D"/>
<path d="M456.928 478.351C457.56 478.351 458.035 477.875 458.035 477.241C458.035 476.607 457.56 476.132 456.928 476.132C456.295 476.132 455.82 476.607 455.82 477.241C455.82 477.875 456.295 478.351 456.928 478.351Z" fill="#121F3D"/>
<path d="M468.318 466.938C468.951 466.938 469.425 466.463 469.425 465.829C469.425 465.195 468.951 464.719 468.318 464.719C467.685 464.719 467.211 465.195 467.211 465.829C467.132 466.383 467.685 466.938 468.318 466.938Z" fill="#121F3D"/>
<path d="M456.927 466.938C457.56 466.938 458.035 466.463 458.035 465.829C458.035 465.195 457.56 464.719 456.927 464.719C456.295 464.719 455.82 465.195 455.82 465.829C455.741 466.383 456.295 466.938 456.927 466.938Z" fill="#121F3D"/>
<path d="M451.232 472.644C451.865 472.644 452.339 472.169 452.339 471.535C452.339 470.901 451.865 470.425 451.232 470.425C450.599 470.425 450.125 470.901 450.125 471.535C450.046 472.09 450.599 472.644 451.232 472.644Z" fill="#121F3D"/>
<path d="M462.623 472.644C463.255 472.644 463.73 472.169 463.73 471.535C463.73 470.901 463.255 470.425 462.623 470.425C461.99 470.425 461.515 470.901 461.515 471.535C461.436 472.09 461.99 472.644 462.623 472.644Z" fill="#121F3D"/>
<path d="M451.232 461.232C451.865 461.232 452.339 460.756 452.339 460.122C452.339 459.488 451.865 459.013 451.232 459.013C450.599 459.013 450.125 459.488 450.125 460.122C450.046 460.677 450.599 461.232 451.232 461.232Z" fill="#121F3D"/>
<path d="M462.623 461.232C463.255 461.232 463.73 460.756 463.73 460.122C463.73 459.488 463.255 459.013 462.623 459.013C461.99 459.013 461.515 459.488 461.515 460.122C461.436 460.677 461.99 461.232 462.623 461.232Z" fill="#121F3D"/>
<path d="M445.537 478.35C446.17 478.35 446.644 477.875 446.644 477.241C446.644 476.607 446.17 476.131 445.537 476.131C444.904 476.131 444.43 476.607 444.43 477.241C444.43 477.875 444.904 478.35 445.537 478.35Z" fill="#121F3D"/>
<path d="M445.537 466.938C446.169 466.938 446.644 466.462 446.644 465.828C446.644 465.194 446.169 464.719 445.537 464.719C444.904 464.719 444.429 465.194 444.429 465.828C444.35 466.383 444.904 466.938 445.537 466.938Z" fill="#121F3D"/>
<path d="M468.318 455.526C468.951 455.526 469.425 455.05 469.425 454.416C469.425 453.782 468.951 453.307 468.318 453.307C467.685 453.307 467.211 453.782 467.211 454.416C467.132 454.971 467.685 455.526 468.318 455.526Z" fill="#121F3D"/>
<path d="M456.927 455.526C457.56 455.526 458.035 455.05 458.035 454.416C458.035 453.782 457.56 453.307 456.927 453.307C456.295 453.307 455.82 453.782 455.82 454.416C455.741 454.971 456.295 455.526 456.927 455.526Z" fill="#121F3D"/>
<path d="M445.537 455.526C446.169 455.526 446.644 455.05 446.644 454.416C446.644 453.782 446.169 453.307 445.537 453.307C444.904 453.307 444.429 453.782 444.429 454.416C444.35 454.971 444.904 455.526 445.537 455.526Z" fill="#121F3D"/>
<path d="M456.927 489.763C457.56 489.763 458.035 489.287 458.035 488.653C458.035 488.019 457.56 487.544 456.927 487.544C456.295 487.544 455.82 488.019 455.82 488.653C455.741 489.208 456.295 489.763 456.927 489.763Z" fill="#121F3D"/>
<path d="M451.232 484.057C451.865 484.057 452.339 483.581 452.339 482.947C452.339 482.313 451.865 481.838 451.232 481.838C450.599 481.838 450.125 482.313 450.125 482.947C450.046 483.502 450.599 484.057 451.232 484.057Z" fill="#121F3D"/>
<path d="M462.623 484.057C463.255 484.057 463.73 483.581 463.73 482.947C463.73 482.313 463.255 481.838 462.623 481.838C461.99 481.838 461.515 482.313 461.515 482.947C461.436 483.502 461.99 484.057 462.623 484.057Z" fill="#121F3D"/>
<path d="M445.537 489.763C446.169 489.763 446.644 489.287 446.644 488.653C446.644 488.019 446.169 487.544 445.537 487.544C444.904 487.544 444.429 488.019 444.429 488.653C444.35 489.208 444.904 489.763 445.537 489.763Z" fill="#121F3D"/>
<path d="M468.318 478.35C468.951 478.35 469.425 477.875 469.425 477.241C469.425 476.607 468.951 476.131 468.318 476.131C467.685 476.131 467.211 476.607 467.211 477.241C467.132 477.796 467.685 478.35 468.318 478.35Z" fill="#121F3D"/>
<path d="M456.927 478.35C457.56 478.35 458.035 477.875 458.035 477.241C458.035 476.607 457.56 476.131 456.927 476.131C456.295 476.131 455.82 476.607 455.82 477.241C455.741 477.796 456.295 478.35 456.927 478.35Z" fill="#121F3D"/>
<path d="M445.537 478.35C446.169 478.35 446.644 477.875 446.644 477.241C446.644 476.607 446.169 476.131 445.537 476.131C444.904 476.131 444.429 476.607 444.429 477.241C444.35 477.796 444.904 478.35 445.537 478.35Z" fill="#121F3D"/>
<path d="M445.537 455.526C446.17 455.526 446.644 455.05 446.644 454.416C446.644 453.782 446.17 453.307 445.537 453.307C444.904 453.307 444.43 453.782 444.43 454.416C444.43 455.05 444.904 455.526 445.537 455.526Z" fill="#121F3D"/>
<path d="M434.146 455.526C434.779 455.526 435.254 455.05 435.254 454.416C435.254 453.782 434.779 453.307 434.146 453.307C433.514 453.307 433.039 453.782 433.039 454.416C433.039 455.05 433.514 455.526 434.146 455.526Z" fill="#121F3D"/>
<path d="M445.541 478.351C446.174 478.351 446.648 477.875 446.648 477.241C446.648 476.607 446.174 476.132 445.541 476.132C444.908 476.132 444.434 476.607 444.434 477.241C444.434 477.875 444.908 478.351 445.541 478.351Z" fill="#121F3D"/>
<path d="M434.15 478.351C434.783 478.351 435.258 477.875 435.258 477.241C435.258 476.607 434.783 476.132 434.15 476.132C433.518 476.132 433.043 476.607 433.043 477.241C433.043 477.875 433.518 478.351 434.15 478.351Z" fill="#121F3D"/>
<path d="M445.541 466.938C446.173 466.938 446.648 466.463 446.648 465.829C446.648 465.195 446.173 464.719 445.541 464.719C444.908 464.719 444.433 465.195 444.433 465.829C444.354 466.383 444.908 466.938 445.541 466.938Z" fill="#121F3D"/>
<path d="M434.15 466.938C434.783 466.938 435.257 466.463 435.257 465.829C435.257 465.195 434.783 464.719 434.15 464.719C433.517 464.719 433.043 465.195 433.043 465.829C432.964 466.383 433.517 466.938 434.15 466.938Z" fill="#121F3D"/>
<path d="M428.455 472.644C429.088 472.644 429.562 472.169 429.562 471.535C429.562 470.901 429.088 470.425 428.455 470.425C427.822 470.425 427.347 470.901 427.347 471.535C427.268 472.09 427.822 472.644 428.455 472.644Z" fill="#121F3D"/>
<path d="M439.845 472.644C440.478 472.644 440.953 472.169 440.953 471.535C440.953 470.901 440.478 470.425 439.845 470.425C439.213 470.425 438.738 470.901 438.738 471.535C438.659 472.09 439.213 472.644 439.845 472.644Z" fill="#121F3D"/>
<path d="M428.455 461.232C429.088 461.232 429.562 460.756 429.562 460.122C429.562 459.488 429.088 459.013 428.455 459.013C427.822 459.013 427.347 459.488 427.347 460.122C427.268 460.677 427.822 461.232 428.455 461.232Z" fill="#121F3D"/>
<path d="M439.845 461.232C440.478 461.232 440.953 460.756 440.953 460.122C440.953 459.488 440.478 459.013 439.845 459.013C439.213 459.013 438.738 459.488 438.738 460.122C438.659 460.677 439.213 461.232 439.845 461.232Z" fill="#121F3D"/>
<path d="M445.541 455.526C446.173 455.526 446.648 455.05 446.648 454.416C446.648 453.782 446.173 453.307 445.541 453.307C444.908 453.307 444.433 453.782 444.433 454.416C444.354 454.971 444.908 455.526 445.541 455.526Z" fill="#121F3D"/>
<path d="M434.15 455.526C434.783 455.526 435.257 455.05 435.257 454.416C435.257 453.782 434.783 453.307 434.15 453.307C433.517 453.307 433.043 453.782 433.043 454.416C432.964 454.971 433.517 455.526 434.15 455.526Z" fill="#121F3D"/>
<path d="M445.541 489.763C446.173 489.763 446.648 489.287 446.648 488.653C446.648 488.019 446.173 487.544 445.541 487.544C444.908 487.544 444.433 488.019 444.433 488.653C444.354 489.208 444.908 489.763 445.541 489.763Z" fill="#121F3D"/>
<path d="M434.15 489.763C434.783 489.763 435.257 489.287 435.257 488.653C435.257 488.019 434.783 487.544 434.15 487.544C433.517 487.544 433.043 488.019 433.043 488.653C432.964 489.208 433.517 489.763 434.15 489.763Z" fill="#121F3D"/>
<path d="M428.455 495.469C429.088 495.469 429.562 494.994 429.562 494.36C429.562 493.726 429.088 493.25 428.455 493.25C427.822 493.25 427.347 493.726 427.347 494.36C427.268 494.914 427.822 495.469 428.455 495.469Z" fill="#121F3D"/>
<path d="M439.845 495.469C440.478 495.469 440.953 494.994 440.953 494.36C440.953 493.726 440.478 493.25 439.845 493.25C439.213 493.25 438.738 493.726 438.738 494.36C438.659 494.914 439.213 495.469 439.845 495.469Z" fill="#121F3D"/>
<path d="M428.455 484.057C429.088 484.057 429.562 483.581 429.562 482.947C429.562 482.313 429.088 481.838 428.455 481.838C427.822 481.838 427.347 482.313 427.347 482.947C427.268 483.502 427.822 484.057 428.455 484.057Z" fill="#121F3D"/>
<path d="M439.845 484.057C440.478 484.057 440.953 483.581 440.953 482.947C440.953 482.313 440.478 481.838 439.845 481.838C439.213 481.838 438.738 482.313 438.738 482.947C438.659 483.502 439.213 484.057 439.845 484.057Z" fill="#121F3D"/>
<path d="M422.76 501.175C423.392 501.175 423.867 500.7 423.867 500.066C423.867 499.431 423.392 498.956 422.76 498.956C422.127 498.956 421.652 499.431 421.652 500.066C421.652 500.7 422.127 501.175 422.76 501.175Z" fill="#121F3D"/>
<path d="M422.759 489.763C423.392 489.763 423.867 489.287 423.867 488.653C423.867 488.019 423.392 487.544 422.759 487.544C422.127 487.544 421.652 488.019 421.652 488.653C421.573 489.208 422.127 489.763 422.759 489.763Z" fill="#121F3D"/>
<path d="M445.541 478.35C446.173 478.35 446.648 477.875 446.648 477.241C446.648 476.607 446.173 476.131 445.541 476.131C444.908 476.131 444.433 476.607 444.433 477.241C444.354 477.796 444.908 478.35 445.541 478.35Z" fill="#121F3D"/>
<path d="M434.15 478.35C434.783 478.35 435.257 477.875 435.257 477.241C435.257 476.607 434.783 476.131 434.15 476.131C433.517 476.131 433.043 476.607 433.043 477.241C432.964 477.796 433.517 478.35 434.15 478.35Z" fill="#121F3D"/>
<path d="M422.76 501.175C423.392 501.175 423.867 500.7 423.867 500.066C423.867 499.432 423.392 498.956 422.76 498.956C422.127 498.956 421.652 499.432 421.652 500.066C421.652 500.7 422.127 501.175 422.76 501.175Z" fill="#121F3D"/>
<path d="M411.369 501.175C412.002 501.175 412.476 500.7 412.476 500.066C412.476 499.432 412.002 498.956 411.369 498.956C410.736 498.956 410.262 499.432 410.262 500.066C410.262 500.7 410.736 501.175 411.369 501.175Z" fill="#121F3D"/>
<path d="M422.759 489.763C423.392 489.763 423.867 489.287 423.867 488.653C423.867 488.019 423.392 487.544 422.759 487.544C422.127 487.544 421.652 488.019 421.652 488.653C421.573 489.208 422.127 489.763 422.759 489.763Z" fill="#121F3D"/>
<path d="M274.697 478.351C275.33 478.351 275.805 477.875 275.805 477.241C275.805 476.607 275.33 476.132 274.697 476.132C274.064 476.132 273.59 476.607 273.59 477.241C273.59 477.875 274.064 478.351 274.697 478.351Z" fill="#121F3D"/>
<path d="M274.697 466.938C275.33 466.938 275.804 466.463 275.804 465.829C275.804 465.195 275.33 464.719 274.697 464.719C274.064 464.719 273.59 465.195 273.59 465.829C273.51 466.383 274.064 466.938 274.697 466.938Z" fill="#121F3D"/>
<path d="M269.002 472.644C269.634 472.644 270.109 472.169 270.109 471.535C270.109 470.901 269.634 470.425 269.002 470.425C268.369 470.425 267.894 470.901 267.894 471.535C267.815 472.09 268.369 472.644 269.002 472.644Z" fill="#121F3D"/>
<path d="M269.002 461.232C269.634 461.232 270.109 460.756 270.109 460.122C270.109 459.488 269.634 459.013 269.002 459.013C268.369 459.013 267.894 459.488 267.894 460.122C267.815 460.677 268.369 461.232 269.002 461.232Z" fill="#121F3D"/>
<path d="M263.307 478.35C263.939 478.35 264.414 477.875 264.414 477.241C264.414 476.607 263.939 476.131 263.307 476.131C262.674 476.131 262.199 476.607 262.199 477.241C262.199 477.875 262.674 478.35 263.307 478.35Z" fill="#121F3D"/>
<path d="M263.306 466.938C263.939 466.938 264.414 466.462 264.414 465.828C264.414 465.194 263.939 464.719 263.306 464.719C262.674 464.719 262.199 465.194 262.199 465.828C262.12 466.383 262.674 466.938 263.306 466.938Z" fill="#121F3D"/>
<path d="M263.306 455.526C263.939 455.526 264.414 455.05 264.414 454.416C264.414 453.782 263.939 453.307 263.306 453.307C262.674 453.307 262.199 453.782 262.199 454.416C262.12 454.971 262.674 455.526 263.306 455.526Z" fill="#121F3D"/>
<path d="M274.697 501.175C275.33 501.175 275.805 500.7 275.805 500.066C275.805 499.432 275.33 498.956 274.697 498.956C274.064 498.956 273.59 499.432 273.59 500.066C273.59 500.7 274.064 501.175 274.697 501.175Z" fill="#121F3D"/>
<path d="M274.697 489.763C275.33 489.763 275.804 489.287 275.804 488.653C275.804 488.019 275.33 487.544 274.697 487.544C274.064 487.544 273.59 488.019 273.59 488.653C273.51 489.208 274.064 489.763 274.697 489.763Z" fill="#121F3D"/>
<path d="M269.002 495.469C269.634 495.469 270.109 494.994 270.109 494.36C270.109 493.725 269.634 493.25 269.002 493.25C268.369 493.25 267.894 493.725 267.894 494.36C267.815 494.914 268.369 495.469 269.002 495.469Z" fill="#121F3D"/>
<path d="M280.392 495.469C281.025 495.469 281.5 494.994 281.5 494.36C281.5 493.725 281.025 493.25 280.392 493.25C279.759 493.25 279.285 493.725 279.285 494.36C279.206 494.914 279.759 495.469 280.392 495.469Z" fill="#121F3D"/>
<path d="M269.002 484.057C269.634 484.057 270.109 483.581 270.109 482.947C270.109 482.313 269.634 481.838 269.002 481.838C268.369 481.838 267.894 482.313 267.894 482.947C267.815 483.502 268.369 484.057 269.002 484.057Z" fill="#121F3D"/>
<path d="M280.392 484.057C281.025 484.057 281.5 483.581 281.5 482.947C281.5 482.313 281.025 481.838 280.392 481.838C279.759 481.838 279.285 482.313 279.285 482.947C279.206 483.502 279.759 484.057 280.392 484.057Z" fill="#121F3D"/>
<path d="M263.307 501.175C263.939 501.175 264.414 500.7 264.414 500.066C264.414 499.431 263.939 498.956 263.307 498.956C262.674 498.956 262.199 499.431 262.199 500.066C262.199 500.7 262.674 501.175 263.307 501.175Z" fill="#121F3D"/>
<path d="M263.306 489.763C263.939 489.763 264.414 489.287 264.414 488.653C264.414 488.019 263.939 487.544 263.306 487.544C262.674 487.544 262.199 488.019 262.199 488.653C262.12 489.208 262.674 489.763 263.306 489.763Z" fill="#121F3D"/>
<path d="M274.697 478.35C275.33 478.35 275.804 477.875 275.804 477.241C275.804 476.607 275.33 476.131 274.697 476.131C274.064 476.131 273.59 476.607 273.59 477.241C273.51 477.796 274.064 478.35 274.697 478.35Z" fill="#121F3D"/>
<path d="M263.306 478.35C263.939 478.35 264.414 477.875 264.414 477.241C264.414 476.607 263.939 476.131 263.306 476.131C262.674 476.131 262.199 476.607 262.199 477.241C262.12 477.796 262.674 478.35 263.306 478.35Z" fill="#121F3D"/>
<path d="M246.22 426.994C246.853 426.994 247.328 426.519 247.328 425.885C247.328 425.251 246.853 424.775 246.22 424.775C245.588 424.775 245.113 425.251 245.113 425.885C245.034 426.44 245.588 426.994 246.22 426.994Z" fill="#121F3D"/>
<path d="M263.307 455.526C263.939 455.526 264.414 455.05 264.414 454.416C264.414 453.782 263.939 453.306 263.307 453.306C262.674 453.306 262.199 453.782 262.199 454.416C262.199 455.05 262.674 455.526 263.307 455.526Z" fill="#121F3D"/>
<path d="M251.916 455.526C252.549 455.526 253.023 455.05 253.023 454.416C253.023 453.782 252.549 453.306 251.916 453.306C251.283 453.306 250.809 453.782 250.809 454.416C250.809 455.05 251.283 455.526 251.916 455.526Z" fill="#121F3D"/>
<path d="M251.916 444.113C252.548 444.113 253.023 443.638 253.023 443.004C253.023 442.37 252.548 441.894 251.916 441.894C251.283 441.894 250.808 442.37 250.808 443.004C250.729 443.559 251.283 444.113 251.916 444.113Z" fill="#121F3D"/>
<path d="M246.22 449.819C246.853 449.819 247.328 449.344 247.328 448.71C247.328 448.076 246.853 447.6 246.22 447.6C245.588 447.6 245.113 448.076 245.113 448.71C245.034 449.265 245.588 449.819 246.22 449.819Z" fill="#121F3D"/>
<path d="M257.611 449.819C258.244 449.819 258.718 449.344 258.718 448.71C258.718 448.076 258.244 447.6 257.611 447.6C256.978 447.6 256.504 448.076 256.504 448.71C256.425 449.265 256.978 449.819 257.611 449.819Z" fill="#121F3D"/>
<path d="M246.22 438.407C246.853 438.407 247.328 437.932 247.328 437.298C247.328 436.664 246.853 436.188 246.22 436.188C245.588 436.188 245.113 436.664 245.113 437.298C245.034 437.852 245.588 438.407 246.22 438.407Z" fill="#121F3D"/>
<path d="M263.307 478.351C263.939 478.351 264.414 477.875 264.414 477.241C264.414 476.607 263.939 476.132 263.307 476.132C262.674 476.132 262.199 476.607 262.199 477.241C262.199 477.875 262.674 478.351 263.307 478.351Z" fill="#121F3D"/>
<path d="M251.916 478.351C252.549 478.351 253.023 477.875 253.023 477.241C253.023 476.607 252.549 476.132 251.916 476.132C251.283 476.132 250.809 476.607 250.809 477.241C250.809 477.875 251.283 478.351 251.916 478.351Z" fill="#121F3D"/>
<path d="M263.306 466.938C263.939 466.938 264.414 466.463 264.414 465.829C264.414 465.195 263.939 464.719 263.306 464.719C262.674 464.719 262.199 465.195 262.199 465.829C262.12 466.383 262.674 466.938 263.306 466.938Z" fill="#121F3D"/>
<path d="M251.916 466.938C252.548 466.938 253.023 466.463 253.023 465.829C253.023 465.195 252.548 464.719 251.916 464.719C251.283 464.719 250.808 465.195 250.808 465.829C250.729 466.383 251.283 466.938 251.916 466.938Z" fill="#121F3D"/>
<path d="M246.22 472.644C246.853 472.644 247.328 472.169 247.328 471.535C247.328 470.901 246.853 470.425 246.22 470.425C245.588 470.425 245.113 470.901 245.113 471.535C245.034 472.09 245.588 472.644 246.22 472.644Z" fill="#121F3D"/>
<path d="M257.611 472.644C258.244 472.644 258.718 472.169 258.718 471.535C258.718 470.901 258.244 470.425 257.611 470.425C256.978 470.425 256.504 470.901 256.504 471.535C256.425 472.09 256.978 472.644 257.611 472.644Z" fill="#121F3D"/>
<path d="M246.22 461.232C246.853 461.232 247.328 460.756 247.328 460.122C247.328 459.488 246.853 459.013 246.22 459.013C245.588 459.013 245.113 459.488 245.113 460.122C245.034 460.677 245.588 461.232 246.22 461.232Z" fill="#121F3D"/>
<path d="M257.611 461.232C258.244 461.232 258.718 460.756 258.718 460.122C258.718 459.488 258.244 459.013 257.611 459.013C256.978 459.013 256.504 459.488 256.504 460.122C256.425 460.677 256.978 461.232 257.611 461.232Z" fill="#121F3D"/>
<path d="M263.306 455.526C263.939 455.526 264.414 455.05 264.414 454.416C264.414 453.782 263.939 453.307 263.306 453.307C262.674 453.307 262.199 453.782 262.199 454.416C262.12 454.971 262.674 455.526 263.306 455.526Z" fill="#121F3D"/>
<path d="M251.916 455.526C252.548 455.526 253.023 455.05 253.023 454.416C253.023 453.782 252.548 453.307 251.916 453.307C251.283 453.307 250.808 453.782 250.808 454.416C250.729 454.971 251.283 455.526 251.916 455.526Z" fill="#121F3D"/>
<path d="M263.307 501.175C263.939 501.175 264.414 500.7 264.414 500.066C264.414 499.432 263.939 498.956 263.307 498.956C262.674 498.956 262.199 499.432 262.199 500.066C262.199 500.7 262.674 501.175 263.307 501.175Z" fill="#121F3D"/>
<path d="M251.916 501.175C252.549 501.175 253.023 500.7 253.023 500.066C253.023 499.432 252.549 498.956 251.916 498.956C251.283 498.956 250.809 499.432 250.809 500.066C250.809 500.7 251.283 501.175 251.916 501.175Z" fill="#121F3D"/>
<path d="M263.306 489.763C263.939 489.763 264.414 489.287 264.414 488.653C264.414 488.019 263.939 487.544 263.306 487.544C262.674 487.544 262.199 488.019 262.199 488.653C262.12 489.208 262.674 489.763 263.306 489.763Z" fill="#121F3D"/>
<path d="M251.916 489.763C252.548 489.763 253.023 489.287 253.023 488.653C253.023 488.019 252.548 487.544 251.916 487.544C251.283 487.544 250.808 488.019 250.808 488.653C250.729 489.208 251.283 489.763 251.916 489.763Z" fill="#121F3D"/>
<path d="M246.22 495.469C246.853 495.469 247.328 494.994 247.328 494.36C247.328 493.725 246.853 493.25 246.22 493.25C245.588 493.25 245.113 493.725 245.113 494.36C245.034 494.914 245.588 495.469 246.22 495.469Z" fill="#121F3D"/>
<path d="M257.611 495.469C258.244 495.469 258.718 494.994 258.718 494.36C258.718 493.725 258.244 493.25 257.611 493.25C256.978 493.25 256.504 493.725 256.504 494.36C256.425 494.914 256.978 495.469 257.611 495.469Z" fill="#121F3D"/>
<path d="M246.22 484.057C246.853 484.057 247.328 483.581 247.328 482.947C247.328 482.313 246.853 481.838 246.22 481.838C245.588 481.838 245.113 482.313 245.113 482.947C245.034 483.502 245.588 484.057 246.22 484.057Z" fill="#121F3D"/>
<path d="M257.611 484.057C258.244 484.057 258.718 483.581 258.718 482.947C258.718 482.313 258.244 481.838 257.611 481.838C256.978 481.838 256.504 482.313 256.504 482.947C256.425 483.502 256.978 484.057 257.611 484.057Z" fill="#121F3D"/>
<path d="M240.525 501.175C241.158 501.175 241.633 500.7 241.633 500.066C241.633 499.432 241.158 498.956 240.525 498.956C239.893 498.956 239.418 499.432 239.418 500.066C239.418 500.7 239.893 501.175 240.525 501.175Z" fill="#121F3D"/>
<path d="M263.306 478.35C263.939 478.35 264.414 477.875 264.414 477.241C264.414 476.607 263.939 476.131 263.306 476.131C262.674 476.131 262.199 476.607 262.199 477.241C262.12 477.796 262.674 478.35 263.306 478.35Z" fill="#121F3D"/>
<path d="M251.916 478.35C252.548 478.35 253.023 477.875 253.023 477.241C253.023 476.607 252.548 476.131 251.916 476.131C251.283 476.131 250.808 476.607 250.808 477.241C250.729 477.796 251.283 478.35 251.916 478.35Z" fill="#121F3D"/>
<path d="M562.837 461.311C562.046 462.896 560.464 469.236 548.6 466.066C536.736 462.896 533.572 455.763 528.035 454.178C522.499 452.593 521.708 453.386 521.708 453.386C521.708 453.386 520.126 447.838 514.589 444.668C512.928 443.717 510.714 443.241 508.341 443.083L508.262 443.004C508.262 443.004 512.216 430.403 515.38 426.44C518.544 422.477 522.499 422.477 522.499 422.477C522.499 422.477 563.628 459.726 562.837 461.311Z" stroke="#121F3D" stroke-width="0.5" stroke-miterlimit="10"/>
<path d="M504.308 465.274C504.308 465.274 430.75 500.145 403.858 502.522C399.745 502.919 396.186 502.998 393.102 502.839C406.627 500.541 417.067 496.499 421.259 489.842C426.796 481.045 426.321 467.572 425.688 455.367C425.688 455.367 444.196 447.838 457.642 443.875C471.089 439.913 496.399 441.498 496.399 441.498L497.19 443.796L502.964 461.153L504.308 465.274Z" stroke="#121F3D" stroke-width="0.5" stroke-miterlimit="10"/>
<path d="M521.707 453.386L502.961 461.153L497.188 443.796C497.188 443.796 502.961 442.687 508.34 443.083C510.634 443.242 512.927 443.717 514.588 444.668C520.125 447.838 521.707 453.386 521.707 453.386Z" stroke="#121F3D" stroke-width="0.5" stroke-miterlimit="10"/>
<path d="M448.072 329.831C439.372 338.469 431.621 337.598 427.429 341.56C423.237 345.523 423.553 346.632 423.553 346.632C423.553 346.632 418.017 345.206 412.48 348.376C410.819 349.327 409.316 351.071 407.972 352.973L407.892 353.052C407.892 353.052 399.034 343.225 397.215 338.549C395.396 333.873 397.373 330.386 397.373 330.386C397.373 330.386 450.208 313.663 451.236 315.169C452.106 316.596 456.773 321.192 448.072 329.831Z" stroke="#121F3D" stroke-width="0.5" stroke-miterlimit="10"/>
<path d="M423.553 346.633L421.022 365.178L402.988 362.959C403.226 362.325 405.124 357.173 407.971 352.973C409.316 351.071 410.819 349.327 412.48 348.376C417.937 345.206 423.553 346.633 423.553 346.633Z" stroke="#121F3D" stroke-width="0.5" stroke-miterlimit="10"/>
<path d="M425.687 455.367C426.32 467.572 426.795 481.045 421.258 489.842C417.066 496.499 406.626 500.541 393.1 502.839C350.152 510.21 276.515 500.145 276.515 500.145C283.95 498.877 281.261 473.991 274.934 465.273C274.696 464.956 274.38 464.481 273.984 463.926C273.984 463.926 297.08 443.875 317.644 445.46C338.209 447.045 377.756 466.066 384.084 461.311C390.411 456.556 382.502 409.797 386.457 394.739C390.411 379.681 396.739 362.245 396.739 362.245L402.908 363.038L420.942 365.257L429.088 366.287C429.088 366.287 425.134 428.897 425.134 443.162C425.213 446.808 425.45 451.008 425.687 455.367Z" stroke="#121F3D" stroke-width="0.5" stroke-miterlimit="10"/>
<path d="M159.456 493.567C157.399 492.457 154.868 492.933 153.286 494.597C152.812 495.152 152.179 495.706 151.546 496.182C149.173 497.767 146.01 487.464 154.71 484.294C160.8 482.075 165.783 485.324 168.156 487.464V497.609C166.02 496.895 162.303 495.072 159.456 493.567ZM183.975 452.593C182.788 449.344 181.76 443.479 181.444 436.822C181.365 439.516 181.444 442.449 181.602 445.46C182.788 469.315 186.348 476.369 186.348 476.369L143.637 481.124L145.219 500.145L168.156 498.956V482.709L204.698 480.173C198.449 476.448 189.907 468.602 183.975 452.593Z" stroke="#121F3D" stroke-width="0.5" stroke-miterlimit="10"/>
<path d="M214.029 479.539L212.922 479.618L204.617 480.173C198.448 476.448 189.826 468.602 183.894 452.593C182.708 449.344 181.68 443.479 181.363 436.822C181.521 426.202 182.866 418.752 183.024 417.88V417.801C184.606 411.699 187.295 406.389 191.725 403.536C204.222 395.452 218.063 398.78 218.617 398.939C217.351 399.177 214.899 399.969 212.526 402.268C211.419 403.298 210.391 404.645 209.442 406.389C208.176 408.846 207.148 412.016 206.753 416.216C205.329 432.78 214.029 479.539 214.029 479.539Z" stroke="#121F3D" stroke-width="0.5" stroke-miterlimit="10"/>
<path d="M183.104 417.801C182.946 418.673 181.601 426.202 181.443 436.743C181.206 430.64 181.601 423.824 183.104 417.801Z" stroke="#121F3D" stroke-width="0.5" stroke-miterlimit="10"/>
<path d="M273.984 463.927C274.38 464.481 274.696 464.957 274.934 465.274C281.261 473.992 283.95 498.877 276.515 500.145" stroke="#121F3D" stroke-width="0.5" stroke-miterlimit="10"/>
<path d="M241.715 496.182C241.715 496.182 271.771 500.937 276.516 500.145" stroke="#121F3D" stroke-width="0.5" stroke-miterlimit="10"/>
<path d="M242.742 417.722C242.742 417.722 267.578 454.891 273.905 463.926" stroke="#121F3D" stroke-width="0.5" stroke-miterlimit="10"/>
<path d="M241.714 496.182C233.014 507.277 168.156 502.522 168.156 502.522V482.709L204.698 480.173L213.003 479.618L214.11 479.539C214.11 479.539 205.41 432.78 206.992 416.137C207.387 411.937 208.415 408.766 209.681 406.31C210.63 404.566 211.658 403.219 212.765 402.188C215.138 399.89 217.669 399.098 218.856 398.86C219.33 398.781 219.647 398.701 219.647 398.701C221.703 398.464 223.601 398.543 225.421 398.939C234.991 400.92 239.974 410.906 242.584 416.929C242.663 417.167 242.742 417.405 242.9 417.722C245.906 427.708 250.098 485.404 241.714 496.182Z" stroke="#121F3D" stroke-width="0.5" stroke-miterlimit="10"/>
<path d="M168.153 487.385V497.53C166.017 496.896 162.3 494.994 159.453 493.488C157.396 492.378 154.865 492.854 153.283 494.518C152.809 495.073 152.176 495.628 151.543 496.103C149.17 497.688 146.007 487.385 154.707 484.215C160.797 482.075 165.701 485.325 168.153 487.385Z" fill="#FFC9A1" stroke="#121F3D" stroke-width="0.5" stroke-miterlimit="10"/>
<path d="M176.54 504.979C175.987 505.376 175.196 505.693 174.405 505.693H76.6441C75.0622 505.693 73.7176 504.662 73.243 503.156L53.3113 438.169C52.7576 436.347 53.7067 434.524 55.2886 433.89C55.6841 433.731 56.1586 433.573 56.7123 433.573H130.666C132.247 433.573 133.671 434.603 134.067 436.109L151.546 495.944C152.021 497.45 153.366 498.481 154.947 498.481H174.405C176.224 498.481 177.727 499.828 177.964 501.651C178.122 502.998 177.489 504.266 176.54 504.979Z" fill="#A8D6FC" stroke="#121F3D" stroke-width="0.5" stroke-miterlimit="10"/>
<path d="M198.37 369.774C198.37 369.774 195.839 369.933 193.308 365.891C190.856 362.008 189.749 357.49 189.67 357.173L189.275 362.483C189.275 362.483 183.975 362.087 177.806 363.83C173.614 365.019 170.292 366.287 167.761 367.476C167.207 366.921 166.337 365.574 165.863 361.928C165.467 358.52 166.97 354.796 167.049 354.558C166.97 354.716 163.173 359.709 163.806 365.336C164.123 367.714 164.36 368.744 164.518 369.14C162.778 370.171 161.671 370.963 161.038 371.439C160.089 368.348 159.456 365.97 159.14 364.781C158.981 364.306 158.902 363.989 158.902 363.989L158.981 363.83L167.761 348.297L191.015 350.595L198.37 369.774Z" fill="#FFC9A1" stroke="#121F3D" stroke-width="0.5" stroke-miterlimit="10"/>
<path d="M212.606 402.189C211.499 403.219 210.471 404.566 209.522 406.31C207.465 407.419 204.618 408.767 201.217 409.797C193.624 412.095 190.618 409.084 190.618 409.084L189.59 398.384L200.584 373.182L201.77 376.114L212.606 402.189Z" fill="#FFC9A1" stroke="#121F3D" stroke-width="0.5" stroke-miterlimit="10"/>
<path d="M201.059 376.352L200.901 377.937L200.584 381.028C200.11 384.991 198.923 388.795 196.867 392.203C194.494 396.086 190.777 399.97 185.319 400.128C174.325 400.445 169.5 392.995 165.546 383.485C163.805 379.206 162.303 374.847 161.195 371.36C161.828 370.884 162.935 370.092 164.675 369.061C164.517 368.665 164.201 367.635 163.964 365.257C163.331 359.63 167.048 354.637 167.206 354.479C167.127 354.717 165.625 358.441 166.02 361.849C166.416 365.495 167.286 366.842 167.918 367.397C170.449 366.208 173.771 364.861 177.963 363.751C184.133 362.087 189.432 362.404 189.432 362.404L189.827 357.094C189.907 357.49 191.014 361.929 193.466 365.812C195.997 369.933 198.528 369.695 198.528 369.695C198.528 369.695 202.957 361.849 207.703 365.019C215.85 370.646 201.059 376.352 201.059 376.352Z" fill="#FFC9A1" stroke="#121F3D" stroke-width="0.5" stroke-miterlimit="10"/>
<path d="M228.423 380.394C227.949 384.278 226.288 393.312 225.26 398.86C223.519 398.464 221.621 398.385 219.486 398.622C219.486 398.622 215.926 398.86 212.604 402.109L201.769 376.035C204.616 374.767 214.661 369.854 207.463 365.098C202.718 361.928 198.288 369.774 198.288 369.774C198.288 369.774 195.757 369.933 193.226 365.891C190.774 362.008 189.667 357.49 189.588 357.173L189.193 362.483C189.193 362.483 183.893 362.087 177.724 363.83C173.532 365.019 170.21 366.287 167.679 367.476C167.125 366.921 166.255 365.574 165.781 361.928C165.385 358.52 166.888 354.796 166.967 354.558C166.888 354.716 163.091 359.709 163.724 365.336C164.041 367.714 164.278 368.744 164.436 369.14C162.696 370.171 161.589 370.963 160.956 371.439C160.56 371.756 160.402 371.914 160.402 371.914C160.402 371.914 159.532 368.982 159.058 364.781C158.979 364.464 158.979 364.147 158.979 363.83C158.267 356.064 159.137 344.651 169.103 339.104C175.351 335.616 185.317 334.903 185.317 334.903C185.317 334.903 193.226 326.344 204.22 328.721C213.633 330.782 223.915 341.085 227 352.656C229.452 361.215 229.214 373.499 228.423 380.394Z" fill="#121F3D" stroke="#121F3D" stroke-miterlimit="10"/>
<path d="M184.921 365.732C184.921 365.732 182.469 365.098 180.887 365.178C178.515 365.336 177.012 366.208 177.012 366.208" stroke="#121F3D" stroke-width="0.5" stroke-miterlimit="10" stroke-linecap="round"/>
<path d="M176.461 391.093C176.461 391.093 176.698 388.557 179.783 387.923C182.077 387.448 183.896 388.319 183.896 388.319" stroke="#121F3D" stroke-width="0.5" stroke-miterlimit="10" stroke-linecap="round"/>
<path d="M164.913 371.359C164.913 371.359 163.331 372.231 161.828 374.054" stroke="#121F3D" stroke-width="0.5" stroke-miterlimit="10" stroke-linecap="round"/>
<path d="M185.241 369.22C185.241 369.22 182.473 368.665 180.97 369.299C178.755 370.25 180.1 371.36 180.1 371.36" stroke="#121F3D" stroke-width="0.5" stroke-miterlimit="10" stroke-linecap="round"/>
<path d="M180.89 372.628C181.764 372.628 182.472 371.918 182.472 371.043C182.472 370.167 181.764 369.458 180.89 369.458C180.017 369.458 179.309 370.167 179.309 371.043C179.309 371.918 180.017 372.628 180.89 372.628Z" fill="#121F3D"/>
<path d="M169.815 374.371C169.815 374.371 167.284 373.737 166.019 374.212C164.12 375.005 165.386 376.194 165.386 376.194" stroke="#121F3D" stroke-width="0.5" stroke-miterlimit="10" stroke-linecap="round"/>
<path d="M166.596 377.41C167.322 377.108 167.638 376.207 167.303 375.399C166.967 374.591 166.107 374.181 165.381 374.484C164.655 374.786 164.339 375.687 164.674 376.495C165.01 377.303 165.87 377.713 166.596 377.41Z" fill="#121F3D"/>
<path d="M171.793 373.975C171.793 373.975 173.77 376.59 172.9 378.651C172.505 379.681 172.03 380.711 172.347 381.425C172.979 382.851 177.25 382.851 177.25 382.851" stroke="#121F3D" stroke-width="0.5" stroke-miterlimit="10" stroke-linecap="round"/>
<path d="M56.6016 437.603H85.3662" stroke="#121F3D" stroke-width="0.5" stroke-miterlimit="10" stroke-linecap="round"/>
<path d="M91.8594 437.603H128.975" stroke="#121F3D" stroke-width="0.5" stroke-miterlimit="10" stroke-linecap="round"/>
<path d="M77.9883 502.522H174.879" stroke="#121F3D" stroke-width="0.5" stroke-miterlimit="10" stroke-linecap="round"/>
<path d="M238.05 335.3C238.05 337.651 236.148 339.555 233.804 339.555C231.46 339.555 229.559 337.651 229.559 335.3C229.559 332.949 231.46 331.044 233.804 331.044C236.148 331.044 238.05 332.949 238.05 335.3Z" stroke="#3989CD"/>
<path d="M255.45 321.43C255.45 324.876 252.663 327.667 249.227 327.667C245.791 327.667 243.004 324.876 243.004 321.43C243.004 317.985 245.791 315.194 249.227 315.194C252.663 315.194 255.45 317.985 255.45 321.43Z" stroke="#3989CD"/>
<path d="M445.652 291.051H193.4C186.577 291.051 181.039 285.502 181.039 278.666V78.4218C181.039 71.5852 186.577 66.0366 193.4 66.0366H445.652C452.475 66.0366 458.012 71.5852 458.012 78.4218V278.666C458.012 285.502 452.475 291.051 445.652 291.051Z" fill="white" stroke="#3989CD" stroke-miterlimit="10"/>
<path d="M458.012 78.4218V106.165C458.012 99.328 452.475 93.7795 445.652 93.7795H193.4C186.577 93.7795 181.039 99.328 181.039 106.165V78.4218C181.039 71.5852 186.577 66.0366 193.4 66.0366H445.652C452.475 66.1357 458.012 71.6843 458.012 78.4218Z" fill="#3989CD"/>
<path d="M207.343 83.4746C210.073 83.4746 212.287 81.2565 212.287 78.5205C212.287 75.7844 210.073 73.5664 207.343 73.5664C204.612 73.5664 202.398 75.7844 202.398 78.5205C202.398 81.2565 204.612 83.4746 207.343 83.4746Z" fill="#EEF7FF"/>
<path d="M220.89 83.9702C223.62 83.9702 225.834 81.7522 225.834 79.0161C225.834 76.28 223.62 74.062 220.89 74.062C218.159 74.062 215.945 76.28 215.945 79.0161C215.945 81.7522 218.159 83.9702 220.89 83.9702Z" fill="#EEF7FF"/>
<path d="M234.534 83.9702C237.265 83.9702 239.478 81.7522 239.478 79.0161C239.478 76.28 237.265 74.062 234.534 74.062C231.803 74.062 229.59 76.28 229.59 79.0161C229.59 81.7522 231.803 83.9702 234.534 83.9702Z" fill="#EEF7FF"/>
<path d="M438.234 81.4934H354.183C352.799 81.4934 351.711 80.4035 351.711 79.0163C351.711 77.6292 352.799 76.5393 354.183 76.5393H438.234C439.619 76.5393 440.706 77.6292 440.706 79.0163C440.706 80.4035 439.52 81.4934 438.234 81.4934Z" fill="#EEF7FF"/>
<path d="M265.669 214.802H226.023V211.792L265.224 154.482H269.679V211.569H282.151V214.802H269.679V232.307H265.669V214.802ZM229.476 211.569H265.669V159.053H265.335L229.476 211.569Z" fill="#3989CD"/>
<path d="M319.346 230.858C326.547 230.858 331.93 228.07 335.493 222.495C339.057 216.921 340.839 208.781 340.839 198.077V188.712C340.839 178.008 339.057 169.868 335.493 164.294C331.93 158.719 326.547 155.931 319.346 155.931C312.144 155.931 306.761 158.719 303.198 164.294C299.634 169.868 297.852 178.008 297.852 188.712V198.077C297.852 208.781 299.634 216.921 303.198 222.495C306.761 228.07 312.144 230.858 319.346 230.858ZM319.346 233.645C311.03 233.645 304.608 230.449 300.079 224.056C295.551 217.59 293.286 207.369 293.286 193.395C293.286 179.42 295.551 169.237 300.079 162.844C304.608 156.377 311.03 153.144 319.346 153.144C327.661 153.144 334.083 156.377 338.612 162.844C343.141 169.237 345.405 179.42 345.405 193.395C345.405 207.369 343.141 217.59 338.612 224.056C334.083 230.449 327.661 233.645 319.346 233.645Z" fill="#3989CD"/>
<path d="M395.74 214.802H356.094V211.792L395.295 154.482H399.749V211.569H412.222V214.802H399.749V232.307H395.74V214.802ZM359.547 211.569H395.74V159.053H395.406L359.547 211.569Z" fill="#3989CD"/>
</g>
<path d="M153.811 30.3235L113.473 42.2114L110.942 36.6637V36.5844L108.569 31.3538L108.332 30.7197L147.484 29.5309L101.609 15.2655H101.53L95.2812 1L153.811 30.3235Z" fill="#EEF7FF" stroke="#3989CD" stroke-width="0.5" stroke-miterlimit="10"/>
<path d="M108.333 30.7204L110.943 36.5851L89.7461 36.6643L101.531 15.2661H101.61L147.485 29.5316L108.333 30.7204Z" fill="#3989CD"/>
<path d="M110.942 36.6637L106.434 36.5844L108.332 30.7197L110.942 36.5844V36.6637Z" fill="#2E77B6"/>
<path d="M140.291 29.5306C140.923 29.5306 141.398 29.0551 141.398 28.4211C141.398 27.787 140.923 27.3115 140.291 27.3115C139.658 27.3115 139.183 27.787 139.183 28.4211C139.104 28.9758 139.658 29.5306 140.291 29.5306Z" fill="#121F3D"/>
<path d="M128.9 29.5306C129.533 29.5306 130.007 29.0551 130.007 28.4211C130.007 27.787 129.533 27.3115 128.9 27.3115C128.267 27.3115 127.793 27.787 127.793 28.4211C127.714 28.9758 128.267 29.5306 128.9 29.5306Z" fill="#121F3D"/>
<path d="M128.9 29.5311C129.533 29.5311 130.007 29.0556 130.007 28.4215C130.007 27.7875 129.533 27.312 128.9 27.312C128.267 27.312 127.793 27.7875 127.793 28.4215C127.714 28.9763 128.267 29.5311 128.9 29.5311Z" fill="#121F3D"/>
<path d="M117.509 29.5311C118.142 29.5311 118.617 29.0556 118.617 28.4215C118.617 27.7875 118.142 27.312 117.509 27.312C116.877 27.312 116.402 27.7875 116.402 28.4215C116.323 28.9763 116.877 29.5311 117.509 29.5311Z" fill="#121F3D"/>
<path d="M111.814 23.8248C112.447 23.8248 112.921 23.3493 112.921 22.7152C112.921 22.0812 112.447 21.6057 111.814 21.6057C111.181 21.6057 110.707 22.0812 110.707 22.7152C110.628 23.27 111.181 23.8248 111.814 23.8248Z" fill="#121F3D"/>
<path d="M123.205 23.8245C123.837 23.8245 124.312 23.349 124.312 22.715C124.312 22.081 123.837 21.6055 123.205 21.6055C122.572 21.6055 122.097 22.081 122.097 22.715C122.018 23.2698 122.572 23.8245 123.205 23.8245Z" fill="#121F3D"/>
<path d="M106.119 29.5306C106.752 29.5306 107.226 29.0551 107.226 28.4211C107.226 27.787 106.752 27.3115 106.119 27.3115C105.486 27.3115 105.011 27.787 105.011 28.4211C104.932 28.9758 105.486 29.5306 106.119 29.5306Z" fill="#121F3D"/>
<path d="M106.209 18.9901C106.841 18.9901 107.316 18.5146 107.316 17.8805C107.316 17.2465 106.841 16.771 106.209 16.771C105.576 16.771 105.101 17.2465 105.101 17.8805C105.022 18.4353 105.576 18.9901 106.209 18.9901Z" fill="#121F3D"/>
<path d="M106.119 29.5311C106.752 29.5311 107.226 29.0556 107.226 28.4215C107.226 27.7875 106.752 27.312 106.119 27.312C105.486 27.312 105.011 27.7875 105.011 28.4215C104.932 28.9763 105.486 29.5311 106.119 29.5311Z" fill="#121F3D"/>
<path d="M95.9235 30.0858C96.5562 30.0858 97.0308 29.6103 97.0308 28.9762C97.0308 28.3422 96.5562 27.8667 95.9235 27.8667C95.2907 27.8667 94.8161 28.3422 94.8161 28.9762C94.7371 29.531 95.2907 30.0858 95.9235 30.0858Z" fill="#121F3D"/>
<path d="M100.423 35.2369C101.056 35.2369 101.531 34.7614 101.531 34.1274C101.531 33.4933 101.056 33.0178 100.423 33.0178C99.7907 33.0178 99.3161 33.4933 99.3161 34.1274C99.2371 34.6821 99.7907 35.2369 100.423 35.2369Z" fill="#121F3D"/>
<path d="M100.423 23.8245C101.056 23.8245 101.531 23.349 101.531 22.715C101.531 22.081 101.056 21.6055 100.423 21.6055C99.7907 21.6055 99.3161 22.081 99.3161 22.715C99.2371 23.2698 99.7907 23.8245 100.423 23.8245Z" fill="#121F3D"/>
<path d="M106.205 18.9901C106.837 18.9901 107.312 18.5146 107.312 17.8805C107.312 17.2465 106.837 16.771 106.205 16.771C105.572 16.771 105.097 17.2465 105.097 17.8805C105.018 18.4353 105.572 18.9901 106.205 18.9901Z" fill="#121F3D"/>
<defs>
<clipPath id="clip0_23_9202">
<rect width="563.231" height="481.222" fill="white" transform="translate(0 42.7781)"/>
</clipPath>
</defs>
</svg>
