<svg width="24" height="25" viewBox="0 0 24 25" fill="none" xmlns="http://www.w3.org/2000/svg">
<path d="M12 22.8889C6.477 22.8889 2 18.4119 2 12.8889C2 7.36592 6.477 2.88892 12 2.88892C17.523 2.88892 22 7.36592 22 12.8889C22 18.4119 17.523 22.8889 12 22.8889ZM7.013 19.1449C8.42855 20.2766 10.1877 20.8918 12 20.8889C13.97 20.8889 15.773 20.1769 17.167 18.9969C16.5157 18.3287 15.7371 17.7978 14.877 17.4357C14.017 17.0736 13.0931 16.8877 12.16 16.8889C11.1926 16.8878 10.2355 17.0878 9.34947 17.4761C8.46343 17.8645 7.66778 18.4328 7.013 19.1449ZM5.616 17.7089C6.45645 16.817 7.47067 16.1066 8.59614 15.6216C9.72161 15.1366 10.9345 14.8873 12.16 14.8889C13.3417 14.8874 14.512 15.1193 15.6037 15.5713C16.6955 16.0233 17.6873 16.6866 18.522 17.5229C19.3781 16.318 19.8836 14.8996 19.9826 13.4248C20.0815 11.9501 19.77 10.4768 19.0825 9.16837C18.395 7.85994 17.3585 6.76754 16.088 6.01236C14.8174 5.25718 13.3625 4.86875 11.8846 4.89017C10.4067 4.91158 8.96366 5.342 7.71552 6.13367C6.46738 6.92534 5.46296 8.04732 4.81369 9.37512C4.16442 10.7029 3.89569 12.1846 4.03732 13.6559C4.17894 15.1271 4.72537 16.5303 5.616 17.7099V17.7089ZM12 13.8889C10.9391 13.8889 9.92172 13.4675 9.17157 12.7173C8.42143 11.9672 8 10.9498 8 9.88892C8 8.82805 8.42143 7.81063 9.17157 7.06049C9.92172 6.31034 10.9391 5.88892 12 5.88892C13.0609 5.88892 14.0783 6.31034 14.8284 7.06049C15.5786 7.81063 16 8.82805 16 9.88892C16 10.9498 15.5786 11.9672 14.8284 12.7173C14.0783 13.4675 13.0609 13.8889 12 13.8889ZM12 11.8889C12.5304 11.8889 13.0391 11.6782 13.4142 11.3031C13.7893 10.9281 14 10.4193 14 9.88892C14 9.35848 13.7893 8.84978 13.4142 8.4747C13.0391 8.09963 12.5304 7.88892 12 7.88892C11.4696 7.88892 10.9609 8.09963 10.5858 8.4747C10.2107 8.84978 10 9.35848 10 9.88892C10 10.4193 10.2107 10.9281 10.5858 11.3031C10.9609 11.6782 11.4696 11.8889 12 11.8889Z" fill="currentColor"/>
</svg>
