<svg width="16" height="16" viewBox="0 0 16 16" fill="none" xmlns="http://www.w3.org/2000/svg">
<path d="M2.66634 10.6666V2.66659H1.33301V1.33325H3.33301C3.50982 1.33325 3.67939 1.40349 3.80441 1.52851C3.92944 1.65354 3.99967 1.82311 3.99967 1.99992V9.99992H12.2917L13.625 4.66659H5.33301V3.33325H14.4797C14.581 3.33325 14.681 3.35636 14.7721 3.40081C14.8632 3.44526 14.9429 3.50989 15.0052 3.58978C15.0676 3.66967 15.1109 3.76272 15.1319 3.86186C15.1529 3.961 15.151 4.06362 15.1263 4.16192L13.4597 10.8286C13.4236 10.9727 13.3403 11.1007 13.2231 11.1921C13.106 11.2836 12.9616 11.3332 12.813 11.3333H3.33301C3.1562 11.3333 2.98663 11.263 2.8616 11.138C2.73658 11.013 2.66634 10.8434 2.66634 10.6666ZM3.99967 15.3333C3.64605 15.3333 3.30691 15.1928 3.05687 14.9427C2.80682 14.6927 2.66634 14.3535 2.66634 13.9999C2.66634 13.6463 2.80682 13.3072 3.05687 13.0571C3.30691 12.8071 3.64605 12.6666 3.99967 12.6666C4.3533 12.6666 4.69244 12.8071 4.94248 13.0571C5.19253 13.3072 5.33301 13.6463 5.33301 13.9999C5.33301 14.3535 5.19253 14.6927 4.94248 14.9427C4.69244 15.1928 4.3533 15.3333 3.99967 15.3333ZM11.9997 15.3333C11.6461 15.3333 11.3069 15.1928 11.0569 14.9427C10.8068 14.6927 10.6663 14.3535 10.6663 13.9999C10.6663 13.6463 10.8068 13.3072 11.0569 13.0571C11.3069 12.8071 11.6461 12.6666 11.9997 12.6666C12.3533 12.6666 12.6924 12.8071 12.9425 13.0571C13.1925 13.3072 13.333 13.6463 13.333 13.9999C13.333 14.3535 13.1925 14.6927 12.9425 14.9427C12.6924 15.1928 12.3533 15.3333 11.9997 15.3333Z" fill="currentColor"/>
</svg>
