<svg width="20" height="20" viewBox="0 0 20 20" fill="none" xmlns="http://www.w3.org/2000/svg">
<path d="M14.1667 13.3334H15.8333V3.33341H7.5V5.00008H14.1667V13.3334ZM14.1667 15.0001V17.5001C14.1667 17.9601 13.7917 18.3334 13.3275 18.3334H3.33917C3.22927 18.3341 3.12033 18.313 3.0186 18.2714C2.91687 18.2299 2.82436 18.1686 2.74638 18.0912C2.6684 18.0137 2.60649 17.9216 2.56421 17.8202C2.52193 17.7188 2.50011 17.61 2.5 17.5001L2.5025 5.83342C2.5025 5.37341 2.8775 5.00008 3.34167 5.00008H5.83333V2.50008C5.83333 2.27907 5.92113 2.06711 6.07741 1.91083C6.23369 1.75455 6.44565 1.66675 6.66667 1.66675H16.6667C16.8877 1.66675 17.0996 1.75455 17.2559 1.91083C17.4122 2.06711 17.5 2.27907 17.5 2.50008V14.1667C17.5 14.3878 17.4122 14.5997 17.2559 14.756C17.0996 14.9123 16.8877 15.0001 16.6667 15.0001H14.1667ZM4.16917 6.66675L4.16667 16.6667H12.5V6.66675H4.16917ZM5.83333 13.3334H9.58333C9.69384 13.3334 9.79982 13.2895 9.87796 13.2114C9.9561 13.1332 10 13.0273 10 12.9167C10 12.8062 9.9561 12.7003 9.87796 12.6221C9.79982 12.544 9.69384 12.5001 9.58333 12.5001H7.08333C6.5308 12.5001 6.0009 12.2806 5.61019 11.8899C5.21949 11.4992 5 10.9693 5 10.4167C5 9.86421 5.21949 9.33431 5.61019 8.94361C6.0009 8.55291 6.5308 8.33342 7.08333 8.33342H7.5V7.50008H9.16667V8.33342H10.8333V10.0001H7.08333C6.97283 10.0001 6.86685 10.044 6.7887 10.1221C6.71057 10.2003 6.66667 10.3062 6.66667 10.4167C6.66667 10.5273 6.71057 10.6332 6.7887 10.7114C6.86685 10.7895 6.97283 10.8334 7.08333 10.8334H9.58333C10.1359 10.8334 10.6658 11.0529 11.0565 11.4436C11.4472 11.8343 11.6667 12.3642 11.6667 12.9167C11.6667 13.4693 11.4472 13.9992 11.0565 14.3899C10.6658 14.7806 10.1359 15.0001 9.58333 15.0001H9.16667V15.8334H7.5V15.0001H5.83333V13.3334Z" fill="currentColor"/>
</svg>
