<svg width="24" height="25" viewBox="0 0 24 25" fill="none" xmlns="http://www.w3.org/2000/svg">
<path d="M5 22.7778C4.73478 22.7778 4.48043 22.6725 4.29289 22.4849C4.10536 22.2974 4 22.043 4 21.7778V3.77783C4 3.51262 4.10536 3.25826 4.29289 3.07073C4.48043 2.88319 4.73478 2.77783 5 2.77783H19C19.2652 2.77783 19.5196 2.88319 19.7071 3.07073C19.8946 3.25826 20 3.51262 20 3.77783V6.77783H18V4.77783H6V20.7778H18V18.7778H20V21.7778C20 22.043 19.8946 22.2974 19.7071 22.4849C19.5196 22.6725 19.2652 22.7778 19 22.7778H5ZM18 16.7778V13.7778H11V11.7778H18V8.77783L23 12.7778L18 16.7778Z" fill="currentColor"/>
</svg>
