<svg width="24" height="25" viewBox="0 0 24 25" fill="none" xmlns="http://www.w3.org/2000/svg">
<path d="M6 2.88892C8.69 2.88892 11.024 4.40592 12.197 6.62992C13.374 4.97192 15.31 3.88892 17.5 3.88892H21V6.38892C21 9.97892 18.09 12.8889 14.5 12.8889H13V13.8889H18V20.8889C18 21.9939 17.105 22.8889 16 22.8889H8C6.895 22.8889 6 21.9939 6 20.8889V13.8889H11V11.8889H9C5.134 11.8889 2 8.75492 2 4.88892V2.88892H6ZM16 15.8889H8V20.8889H16V15.8889ZM19 5.88892H17.5C15.015 5.88892 13 7.90392 13 10.3889V10.8889H14.5C16.985 10.8889 19 8.87392 19 6.38892V5.88892ZM6 4.88892H4C4 7.64992 6.239 9.88892 9 9.88892H11C11 7.12792 8.761 4.88892 6 4.88892Z" fill="currentColor"/>
</svg>
