<svg width="16" height="16" viewBox="0 0 16 16" fill="none" xmlns="http://www.w3.org/2000/svg">
<path d="M11.745 3.97875L12.7137 3.01008L13.6564 3.95275L12.6877 4.92141C13.6449 6.11953 14.107 7.63867 13.9791 9.16684C13.8512 10.695 13.143 12.1162 12 13.1386C10.857 14.1609 9.36596 14.7068 7.83304 14.6641C6.30012 14.6215 4.84172 13.9935 3.75736 12.9091C2.673 11.8247 2.045 10.3663 2.00233 8.83342C1.95965 7.3005 2.50555 5.80943 3.5279 4.66642C4.55025 3.52342 5.97145 2.81525 7.49963 2.68736C9.0278 2.55947 10.5469 3.02157 11.745 3.97875ZM7.99971 13.3334C8.61255 13.3334 9.21938 13.2127 9.78557 12.9782C10.3518 12.7437 10.8662 12.3999 11.2995 11.9666C11.7329 11.5332 12.0766 11.0188 12.3112 10.4526C12.5457 9.88642 12.6664 9.27958 12.6664 8.66675C12.6664 8.05391 12.5457 7.44708 12.3112 6.88089C12.0766 6.31471 11.7329 5.80026 11.2995 5.36692C10.8662 4.93358 10.3518 4.58983 9.78557 4.35531C9.21938 4.12079 8.61255 4.00008 7.99971 4.00008C6.76204 4.00008 5.57505 4.49175 4.69988 5.36692C3.82471 6.24209 3.33305 7.42907 3.33305 8.66675C3.33305 9.90443 3.82471 11.0914 4.69988 11.9666C5.57505 12.8417 6.76204 13.3334 7.99971 13.3334ZM7.33305 5.33342H8.66638V9.33342H7.33305V5.33342ZM5.33305 0.666748H10.6664V2.00008H5.33305V0.666748Z" fill="white"/>
</svg>
