<svg width="24" height="25" viewBox="0 0 24 25" fill="none" xmlns="http://www.w3.org/2000/svg">
<path d="M8.965 18.8889C8.84612 19.7232 8.43021 20.4866 7.79368 21.0389C7.15714 21.5911 6.34272 21.8952 5.5 21.8952C4.65728 21.8952 3.84286 21.5911 3.20632 21.0389C2.56979 20.4866 2.15388 19.7232 2.035 18.8889H1V6.88892C1 6.6237 1.10536 6.36935 1.29289 6.18181C1.48043 5.99427 1.73478 5.88892 2 5.88892H16C16.2652 5.88892 16.5196 5.99427 16.7071 6.18181C16.8946 6.36935 17 6.6237 17 6.88892V8.88892H20L23 12.9449V18.8889H20.965C20.8461 19.7232 20.4302 20.4866 19.7937 21.0389C19.1571 21.5911 18.3427 21.8952 17.5 21.8952C16.6573 21.8952 15.8429 21.5911 15.2063 21.0389C14.5698 20.4866 14.1539 19.7232 14.035 18.8889H8.965ZM15 7.88892H3V15.9389C3.39456 15.5361 3.8806 15.2346 4.41675 15.06C4.9529 14.8855 5.52329 14.843 6.07938 14.9363C6.63546 15.0296 7.16077 15.2559 7.61061 15.5958C8.06044 15.9358 8.42148 16.3794 8.663 16.8889H14.337C14.505 16.5359 14.73 16.2149 15 15.9389V7.88892ZM17 13.8889H21V13.6039L18.992 10.8889H17V13.8889ZM17.5 19.8889C17.898 19.8889 18.2796 19.7308 18.561 19.4494C18.8424 19.168 19.0005 18.7864 19.0005 18.3884C19.0005 17.9905 18.8424 17.6088 18.561 17.3274C18.2796 17.046 17.898 16.8879 17.5 16.8879C17.102 16.8879 16.7204 17.046 16.439 17.3274C16.1576 17.6088 15.9995 17.9905 15.9995 18.3884C15.9995 18.7864 16.1576 19.168 16.439 19.4494C16.7204 19.7308 17.102 19.8889 17.5 19.8889ZM7 18.3889C7 18.1919 6.9612 17.9969 6.88582 17.8149C6.81044 17.6329 6.69995 17.4675 6.56066 17.3283C6.42137 17.189 6.25601 17.0785 6.07403 17.0031C5.89204 16.9277 5.69698 16.8889 5.5 16.8889C5.30302 16.8889 5.10796 16.9277 4.92597 17.0031C4.74399 17.0785 4.57863 17.189 4.43934 17.3283C4.30005 17.4675 4.18956 17.6329 4.11418 17.8149C4.0388 17.9969 4 18.1919 4 18.3889C4 18.7867 4.15804 19.1683 4.43934 19.4496C4.72064 19.7309 5.10218 19.8889 5.5 19.8889C5.89782 19.8889 6.27936 19.7309 6.56066 19.4496C6.84196 19.1683 7 18.7867 7 18.3889Z" fill="currentColor"/>
</svg>
